<?xml version="1.0" encoding="UTF-8" standalone="no"?>
<!-- Created with Inkscape (http://www.inkscape.org/) -->

<svg
   xmlns:dc="http://purl.org/dc/elements/1.1/"
   xmlns:cc="http://creativecommons.org/ns#"
   xmlns:rdf="http://www.w3.org/1999/02/22-rdf-syntax-ns#"
   xmlns:svg="http://www.w3.org/2000/svg"
   xmlns="http://www.w3.org/2000/svg"
   xmlns:sodipodi="http://sodipodi.sourceforge.net/DTD/sodipodi-0.dtd"
   xmlns:inkscape="http://www.inkscape.org/namespaces/inkscape"
   version="1.1"
   id="svg244"
   width="441.77762"
   height="442.47668"
   viewBox="0 0 441.77762 442.47668"
   sodipodi:docname="adv-icon-5.svg"
   inkscape:version="0.92.4 (unknown)">
  <path
     style="stroke-width:0.86486489"
     d="m 191.18522,441.80437 c -9.52071,-2.28932 -18.96031,-10.138 -23.63024,-19.64765 -2.20192,-4.48394 -2.41753,-5.77146 -2.41753,-14.43651 0,-8.76616 0.19926,-9.92116 2.53661,-14.7027 4.62263,-9.4566 14.12865,-17.14378 24.02217,-19.42591 2.04132,-0.47087 13.83041,-0.8571 26.19797,-0.85828 20.11855,-0.002 22.86136,0.16809 26.04635,1.61445 5.75646,2.61412 10.97227,11.00191 12.14027,19.52333 l 0.55337,4.03735 39.87326,-0.36507 c 36.32467,-0.33258 40.56597,-0.52316 47.65703,-2.1414 33.15985,-7.56736 56.58796,-26.71326 65.3576,-53.4115 1.86516,-5.6783 2.01013,-7.73155 2.3356,-33.08108 0.19085,-14.86487 0.15398,-27.02703 -0.0819,-27.02703 -0.23592,0 -2.89632,1.1676 -5.912,2.59465 -3.01569,1.42705 -6.66653,2.81725 -8.113,3.08934 -2.23948,0.42126 -2.86511,1.15958 -4.21386,4.97293 -4.18735,11.83899 -13.30707,20.64967 -25.73678,24.86465 -4.56248,1.54716 -6.86308,1.791 -13.82253,1.46504 -7.3607,-0.34476 -9.12991,-0.76187 -14.94515,-3.52352 -8.80154,-4.17984 -15.07463,-10.46988 -19.33056,-19.3828 l -3.21309,-6.72894 -0.26959,-43.67567 c -0.30325,-49.12837 -0.20091,-50.16855 5.85257,-59.48442 6.3372,-9.75252 16.13269,-16.36354 27.31387,-18.43427 7.93529,-1.4696 14.27278,-0.45249 24.97076,4.00758 1.5794,0.65846 1.62643,0.33342 1.07875,-7.45697 -4.32046,-61.45592 -45.20453,-114.96736 -103.55491,-135.538659 -19.19104,-6.765761 -42.96437,-9.81939 -62.85091,-8.073055 -20.87018,1.832713 -38.1571,6.550647 -56,15.283482 -17.13149,8.384645 -30.16638,18.013449 -44.25298,32.689451 C 86.15086,92.123368 71.6922,122.1453 67.38681,154.49235 c -1.18046,8.86898 -1.65236,17.55218 -0.95389,17.55218 0.17737,0 2.04431,-0.76164 4.14876,-1.69254 2.10445,-0.9309 6.57925,-2.14719 9.94399,-2.70287 21.18907,-3.49929 41.7467,11.86647 45.22164,33.80082 1.15168,7.26967 1.15001,75.4559 -0.002,83.45946 -2.81125,19.53014 -19.6192,34.1843 -39.17135,34.1519 -17.29843,-0.0287 -32.0894,-10.19098 -37.85744,-26.01037 -1.6583,-4.54805 -2.06549,-5.00263 -4.96304,-5.54075 -5.21992,-0.96942 -14.90199,-6.6028 -20.06066,-11.67203 -5.3681,-5.27503 -8.73569,-10.51959 -11.14169,-17.35168 -1.36177,-3.86687 -2.04527,-4.67632 -4.7271999,-5.59833 -4.08777,-1.4053 -5.72651,-2.82844 -7.13385999,-6.19523 -2.17251001,-5.19729 1.01659999,-11.68072 6.31965999,-12.8478 4.2400599,-0.9332 4.6139299,-1.16514 4.6139299,-2.86248 0,-0.91119 1.5602,-4.77389 3.4671,-8.58377 5.38907,-10.76702 15.98624,-19.76651 27.23561,-23.12943 l 3.45946,-1.03418 0.49518,-21.96022 c 0.54731,-24.27196 1.62,-32.43387 6.49542,-49.42253 C 60.57749,99.670214 74.34982,75.549481 93.8455,54.924976 136.60978,9.6846117 200.79891,-9.6479379 260.86814,4.6209334 321.93341,19.126409 370.84506,65.324114 388.65876,125.32088 c 5.05104,17.012 6.27051,25.99337 6.85971,50.52171 l 0.5379,22.39264 3.45946,1.03419 c 13.6256,4.07331 26.30606,16.73412 30.28982,30.24288 0.67527,2.28983 1.60079,3.59699 2.66924,3.76993 5.88845,0.9531 9.15971,4.35689 9.29918,9.67594 0.10863,4.14295 -2.27835,7.65042 -6.39953,9.40359 l -3.32042,1.4125 -0.31177,42.37838 c -0.30149,40.97904 -0.37667,42.606 -2.27686,49.27146 -10.7894,37.84676 -47.03665,65.76508 -92.62968,71.34512 -4.03076,0.49331 -23.68482,0.89969 -43.67568,0.90304 l -36.34701,0.006 -1.47785,6.12733 c -1.89131,7.84154 -5.03927,13.17537 -9.53162,16.1501 l -3.5625,2.35901 -23.84915,0.14847 c -13.11703,0.0816 -25.36009,-0.21484 -27.20678,-0.6589 z m 44.62035,-21.3274 c 0.57378,-1.35965 1.00369,-6.82371 1.00369,-12.75676 0,-5.93305 -0.42991,-11.3971 -1.00369,-12.75675 l -1.00369,-2.37838 h -19.07621 c -20.77486,0 -22.74858,0.35619 -26.96563,4.86645 -7.29088,7.79779 -4.92638,19.22573 4.91795,23.76919 3.02319,1.39529 5.83431,1.59904 22.29167,1.61564 l 18.83222,0.019 1.00369,-2.37838 z M 93.59765,297.83854 c 4.25156,-1.77327 8.66977,-6.05923 10.65344,-10.33455 1.49149,-3.21455 1.60647,-6.36363 1.62412,-44.4837 0.0184,-39.78968 -0.0351,-41.13595 -1.77812,-44.73657 -3.34365,-6.90705 -10.06349,-10.93363 -18.16516,-10.88472 -5.9648,0.036 -10.74928,2.32476 -14.83297,7.09563 -4.5961,5.36951 -4.98855,7.85005 -4.98855,31.53103 0,23.48313 -0.32574,25.23362 -5.16088,27.73396 -3.22194,1.66614 -6.34819,1.66614 -9.57013,0 -4.51059,-2.33251 -5.16088,-4.88619 -5.16088,-20.26673 0,-10.54089 -0.26012,-13.875 -1.08108,-13.85673 -1.75533,0.0391 -7.55857,4.81188 -10.16596,8.36088 -5.73754,7.80953 -6.5427,17.75827 -2.16186,26.71237 3.89599,7.96313 13.14246,14.21611 21.00425,14.20427 6.6635,-0.01 12.2663,4.65703 12.3345,10.27452 0.1672,13.7707 14.99449,23.84507 27.44928,18.65034 z m 272.91617,-1.83496 c 5.35364,-3.76268 8.40467,-8.65812 9.13104,-14.6509 1.07656,-8.88217 3.27129,-11.05654 12.47572,-12.36005 7.39528,-1.0473 12.58344,-3.55228 16.6269,-8.02791 8.60718,-9.52711 9.4727,-22.96445 2.12351,-32.96768 -2.60741,-3.549 -8.41064,-8.32181 -10.16597,-8.36088 -0.82287,-0.0183 -1.08108,3.44174 -1.08108,14.4862 0,15.86757 -0.33729,17.14289 -5.19874,19.65684 -3.2806,1.69646 -6.49495,1.63496 -9.57277,-0.18315 -4.76534,-2.81496 -5.12039,-4.82385 -5.12039,-28.97187 0,-21.86732 -0.0104,-21.99058 -2.22541,-26.43559 -7.24223,-14.53324 -28.07719,-14.56042 -35.30999,-0.0461 l -2.24838,4.51193 v 39.72984 c 0,28.78597 0.2912,40.71043 1.05714,43.28965 1.29002,4.34396 7.68151,11.00683 11.91583,12.42178 1.66487,0.55633 5.50591,0.87431 8.53566,0.70662 4.36948,-0.24185 6.24239,-0.82061 9.05693,-2.79874 z"
     id="path347"
     inkscape:connector-curvature="0" />
</svg>
