<?xml version="1.0" encoding="UTF-8" standalone="no"?>
<!-- Created with Inkscape (http://www.inkscape.org/) -->

<svg
   xmlns:dc="http://purl.org/dc/elements/1.1/"
   xmlns:cc="http://creativecommons.org/ns#"
   xmlns:rdf="http://www.w3.org/1999/02/22-rdf-syntax-ns#"
   xmlns:svg="http://www.w3.org/2000/svg"
   xmlns="http://www.w3.org/2000/svg"
   xmlns:sodipodi="http://sodipodi.sourceforge.net/DTD/sodipodi-0.dtd"
   xmlns:inkscape="http://www.inkscape.org/namespaces/inkscape"
   version="1.1"
   id="svg264"
   width="446.8331"
   height="446.82983"
   viewBox="0 0 446.83309 446.82983"
   sodipodi:docname="adv-icon-2.svg"
   inkscape:version="0.92.4 (unknown)">
  <path
     style="stroke-width:0.87272727"
     d="m 139.13045,445.18759 c -3.17486,-1.93602 -3.78397,-3.35011 -7.37357,-17.11814 -1.50174,-5.76 -3.30223,-12.48535 -4.00108,-14.94522 l -1.27064,-4.4725 -5.4244,-0.59865 c -7.30601,-0.8063 -17.96232,-3.56809 -23.90079,-6.19438 -2.67743,-1.18409 -5.28264,-2.15288 -5.78935,-2.15288 -0.5067,0 -6.50168,5.49818 -13.32216,12.21818 -12.20945,12.02956 -12.46099,12.21818 -16.29373,12.21818 -2.92856,0 -4.73595,-0.6259 -7.29651,-2.52682 -3.95872,-2.93888 -28.22857,-27.42868 -30.33787,-30.61282 -0.78619,-1.1868 -1.42944,-3.88114 -1.42944,-5.98742 0,-3.7534 0.24576,-4.07903 12.3515,-16.36579 l 12.35149,-12.5362 -2.72929,-7.22183 c -3.30702,-8.75054 -5.21931,-16.22388 -5.95675,-23.27929 -0.39318,-3.76173 -0.95717,-5.4092 -1.95736,-5.71769 -0.77277,-0.23835 -7.93156,-2.16953 -15.90841,-4.2915 -7.97686,-2.12198 -15.33643,-4.304 -16.35461,-4.8489 C 2.32334,309.59571 0,305.47322 0,302.79144 c 0,-2.01286 9.91765,-39.75707 11.53938,-43.91611 1.15295,-2.95683 5.39645,-5.77984 8.69507,-5.78443 1.83136,-0.003 27.93578,6.58626 32.7057,8.25499 0.55709,0.1949 1.99741,-1.13337 3.20072,-2.9517 3.40991,-5.15272 11.54679,-13.58491 17.91557,-18.56578 3.18896,-2.49402 5.86219,-4.55643 5.94052,-4.58313 0.0783,-0.0267 -1.7808,-7.11764 -4.13138,-15.75764 -2.35059,-8.64 -4.28013,-16.61224 -4.28787,-17.71607 -0.0197,-2.81533 2.26666,-6.91464 4.53322,-8.12767 2.66856,-1.42818 42.53193,-12.11075 45.19816,-12.11219 3.13923,-0.002 7.39388,2.87011 8.56315,5.77998 0.90763,2.25878 8.8914,31.1582 8.8914,32.18488 0,0.23509 1.47272,0.43593 3.27272,0.44632 4.99519,0.0288 17.38984,3.00465 25.43141,6.10581 l 7.21103,2.78086 12.36968,-12.17199 c 12.93072,-12.72407 14.80235,-13.87249 20.12204,-12.34683 3.78163,1.08456 34.32756,31.62737 35.36296,35.35936 1.4858,5.35536 0.35638,7.19367 -12.35796,20.11451 l -12.17199,12.36968 2.78086,7.21103 c 3.10116,8.04157 6.07699,20.43622 6.10581,25.43141 0.0104,1.8 0.17254,3.27272 0.36033,3.27272 1.52966,0 31.17429,8.32859 33.0256,9.27847 2.63327,1.35107 5.03296,5.29041 5.03296,8.2621 0,2.62704 -10.42555,41.66249 -11.91879,44.62648 -1.34352,2.66681 -5.28221,5.04024 -8.32878,5.01888 -1.10383,-0.008 -9.07607,-1.93728 -17.71607,-4.28786 -8.64,-2.35059 -15.73094,-4.2097 -15.75764,-4.13139 -0.0267,0.0784 -2.08911,2.75156 -4.58313,5.94053 -4.98087,6.36878 -13.41306,14.50566 -18.56578,17.91556 -1.81833,1.20332 -3.1466,2.64364 -2.9517,3.20072 1.66873,4.76992 8.25754,30.87434 8.25499,32.70571 -0.004,3.29342 -2.8241,7.53827 -5.78443,8.70861 -4.22179,1.66905 -41.95981,11.52604 -44.11475,11.52257 -1.11366,-0.002 -3.23431,-0.7408 -4.71256,-1.64224 z m 22.90085,-23.32202 c 4.72278,-1.25214 8.82386,-2.41792 9.11351,-2.59063 0.28964,-0.17271 -1.16949,-6.51187 -3.2425,-14.08702 -2.07303,-7.57516 -3.78274,-15.19277 -3.79936,-16.92804 -0.0401,-4.1768 2.17841,-6.84 9.81002,-11.77686 7.93551,-5.13346 15.91259,-13.11054 21.04605,-21.04605 4.92046,-7.60624 7.59805,-9.84218 11.77686,-9.83427 1.73527,0.003 8.96917,1.57419 16.07534,3.49091 7.10617,1.91671 13.42361,3.48494 14.03875,3.48494 0.67835,0 2.03323,-3.41143 3.44332,-8.66997 2.27267,-8.47523 2.75982,-11.40276 1.89746,-11.40276 -0.23507,0 -7.00962,-1.77279 -15.05454,-3.93954 -18.70385,-5.03753 -18.90701,-5.21857 -19.71647,-17.57039 -0.74146,-11.31411 -3.15432,-20.52488 -8.00783,-30.56886 -2.15655,-4.46284 -3.921,-9.23916 -3.921,-10.61405 0,-3.34278 3.22881,-7.50797 14.30522,-18.45389 l 9.25578,-9.14673 -7.18274,-7.22024 -7.18273,-7.22025 -10.48868,10.35489 c -5.76877,5.69519 -11.45969,10.99851 -12.6465,11.78516 -3.36913,2.23315 -6.40143,1.73447 -15.1452,-2.49074 -10.04398,-4.85351 -19.25475,-7.26637 -30.56886,-8.00783 -12.40524,-0.81296 -12.53702,-0.96271 -17.72617,-20.14389 -2.80904,-10.38331 -4.4519,-15.05455 -5.29466,-15.05455 -3.2496,0 -18.56182,4.75838 -18.56182,5.76821 0,0.61514 1.56822,6.93258 3.48494,14.03875 1.91672,7.10617 3.48762,14.34007 3.4909,16.07534 0.008,4.17881 -2.22802,6.8564 -9.83427,11.77686 -7.93551,5.13346 -15.91259,13.11054 -21.04605,21.04605 -4.80353,7.42551 -7.626,9.84024 -11.50178,9.84024 -1.58397,0 -9.19819,-1.7152 -16.92048,-3.81157 -7.72229,-2.09637 -14.18524,-3.5691 -14.3621,-3.27273 -0.52729,0.88356 -4.8748,17.62352 -4.8748,18.77026 0,0.63228 5.87797,2.61366 14.6148,4.92644 19.5777,5.18254 19.33705,4.9601 20.81847,19.24305 1.28735,12.41182 3.44668,20.18446 8.28994,29.84002 3.68443,7.34533 4.21083,11.24463 1.9736,14.61943 -0.78676,1.18681 -5.98584,6.77396 -11.55351,12.41589 l -10.12303,10.25807 7.18634,7.18635 7.18635,7.18635 10.25807,-10.12304 c 5.64193,-5.56767 11.22908,-10.76675 12.41589,-11.5535 3.37481,-2.23724 7.2741,-1.71084 14.61943,1.97359 9.65556,4.84326 17.4282,7.0026 29.84002,8.28994 14.32337,1.48562 14.12637,1.27199 19.22522,20.84743 2.38428,9.15369 4.20938,14.58584 4.90057,14.58584 0.60575,0 4.96545,-1.02448 9.68823,-2.27661 z m -37.88819,-54.49103 c -19.50704,-3.4837 -35.78275,-17.10245 -42.17525,-35.29027 -6.86826,-19.54142 -1.95406,-41.31475 12.59282,-55.79502 16.99915,-16.92131 40.73903,-20.72168 62.47955,-10.00198 22.67769,11.18181 34.61165,38.44783 27.46706,62.75523 -5.2153,17.74354 -20.22454,32.5117 -37.59783,36.99393 -6.93479,1.78914 -16.94594,2.37755 -22.76635,1.33811 z m 16.83717,-20.5141 c 10.16112,-2.64595 17.63373,-8.86038 22.48591,-18.6999 2.54482,-5.16054 2.78835,-6.3801 2.78835,-13.96364 0,-7.524 -0.26181,-8.86192 -2.77038,-14.15716 -3.52462,-7.44 -9.25081,-13.16619 -16.69081,-16.69081 -5.29242,-2.50724 -6.63542,-2.77038 -14.13881,-2.77038 -7.4968,0 -8.83424,0.26147 -13.96363,2.73001 -20.89932,10.05783 -26.44233,36.43999 -11.16767,53.1529 5.16816,5.6548 9.79818,8.57355 16.42519,10.35439 6.27075,1.6851 10.68742,1.69667 17.03185,0.0446 z m 138.72881,-87.1382 c -11.04,-2.99712 -20.9523,-5.92401 -22.02733,-6.50419 -2.29937,-1.24095 -4.59152,-5.31642 -4.58926,-8.1598 8.7e-4,-1.10383 1.76814,-8.62385 3.92727,-16.71114 2.15913,-8.08728 3.92568,-15.20794 3.92568,-15.82369 0,-0.61573 -1.47272,-2.22783 -3.27272,-3.58241 -5.58665,-4.20424 -14.2245,-12.77624 -18.4405,-18.29994 l -4.03223,-5.28294 -15.27273,4.13031 c -8.4,2.27167 -16.45091,4.15661 -17.89091,4.18876 -3.48946,0.0779 -7.75534,-2.63191 -9.00886,-5.72271 -1.65126,-4.07152 -11.50023,-41.547 -11.50023,-43.75856 0,-2.80245 2.26874,-6.93259 4.44918,-8.09953 1.54187,-0.82518 8.37227,-2.77402 30.24173,-8.62856 3.46893,-0.92864 3.70909,-1.19091 3.70909,-4.05063 0,-5.07279 2.58304,-16.02026 5.8298,-24.707956 l 3.06322,-8.196578 -11.86692,-11.88968 c -7.58087,-7.595409 -12.14629,-12.863802 -12.64043,-14.586767 -1.60263,-5.588039 -0.66215,-6.957181 16.8627,-24.548582 16.50961,-16.572306 16.78685,-16.8 20.45596,-16.8 2.04573,0 4.57733,0.43514 5.62577,0.966978 1.04844,0.531838 7.08351,6.096412 13.41126,12.365721 l 11.505,11.398742 7.25864,-2.743518 c 8.79216,-3.323138 16.25257,-5.232693 23.3361,-5.973068 2.91739,-0.304928 5.30435,-0.669424 5.30435,-0.809989 0,-0.894461 8.08722,-30.0764096 8.89814,-32.1080825 C 318.09388,2.9708414 322.35476,0.00493313 325.28088,9.3273384e-7 327.36199,-0.00350907 365.33261,9.9004982 369.48503,11.529918 c 2.91501,1.143857 5.79044,5.406942 5.75989,8.539547 -0.0117,1.2 -1.93864,9.250909 -4.28207,17.890909 l -4.26079,15.709091 1.87197,1.309091 c 5.70713,3.991064 14.5874,12.477638 19.21023,18.358565 l 5.27884,6.71549 12.70482,-3.412234 c 19.88233,-5.339961 21.20111,-5.568179 24.43517,-4.228584 1.54266,0.638989 3.37855,2.037387 4.07974,3.10755 1.40376,2.142398 12.55549,43.103887 12.55027,46.098437 -0.005,2.86798 -2.99647,7.13166 -5.78443,8.24445 -2.03168,0.81092 -31.21362,8.89814 -32.10808,8.89814 -0.14057,0 -0.50349,2.37188 -0.80649,5.27084 -0.7245,6.93167 -3.56806,17.92969 -6.45046,24.9485 l -2.31417,5.63512 11.42101,11.52731 c 6.28156,6.34003 11.85616,12.38514 12.38799,13.43358 1.32874,2.61941 1.21194,6.87591 -0.26618,9.70071 -0.67823,1.29617 -8.23823,9.26997 -16.8,17.71958 -16.27257,16.0594 -17.831,17.09706 -23.31542,15.52414 -1.72337,-0.49425 -6.99694,-5.06514 -14.60724,-12.66086 l -11.91014,-11.88735 -7.24773,2.79502 c -8.03556,3.09884 -20.45809,6.09088 -25.40931,6.11997 -2.29779,0.0135 -3.34161,0.45424 -3.66187,1.54616 -0.24637,0.84 -2.05629,7.61455 -4.02204,15.05455 -1.96575,7.44 -4.01752,14.65372 -4.5595,16.03049 -1.21456,3.08536 -5.48201,5.8026 -8.97904,5.7173 -1.44,-0.0352 -11.65091,-2.51606 -22.69091,-5.51319 z m 19.67375,-31.72551 c 3.29539,-12.71659 4.15241,-14.98715 6.58812,-17.45455 2.45881,-2.49078 3.36883,-2.83846 7.46904,-2.85365 11.69764,-0.0433 24.35967,-3.2137 35.41489,-8.86741 10.59102,-5.4163 10.67922,-5.38608 24.63133,8.43868 l 11.88061,11.77218 7.37312,-7.41164 7.37313,-7.41163 -10.58013,-10.68781 c -5.81908,-5.8783 -11.01543,-11.54563 -11.54745,-12.59407 -1.63048,-3.21312 -1.08795,-7.27044 1.6005,-11.96936 4.48008,-7.83035 7.87236,-19.59598 9.10555,-31.58121 1.49548,-14.5345 1.00634,-14.07334 20.45218,-19.28188 8.25095,-2.20999 15.00851,-4.45333 15.0168,-4.98519 0.0444,-2.84298 -4.90902,-18.857907 -5.83269,-18.857907 -0.58797,0 -6.88318,1.568221 -13.98935,3.484939 -14.17649,3.823758 -18.94288,4.251628 -21.7248,1.950202 -1.00248,-0.82933 -3.70009,-4.380023 -5.9947,-7.890437 -5.3161,-8.132854 -13.44903,-16.265779 -21.58188,-21.581881 -3.51041,-2.294609 -7.0611,-4.992221 -7.89043,-5.994693 -2.30144,-2.781924 -1.87357,-7.548314 1.9502,-21.724806 1.91671,-7.106172 3.48494,-13.428738 3.48494,-14.050146 0,-0.975714 -15.73598,-5.785054 -18.85792,-5.763493 -0.53186,0.0037 -2.77644,6.781224 -4.98797,15.061224 -3.5054,13.124314 -4.36229,15.362264 -6.68313,17.454546 -2.05568,1.853249 -3.53932,2.4 -6.51251,2.4 -11.27305,0 -24.6697,3.313515 -35.63576,8.814117 -6.9618,3.492053 -10.65253,4.134517 -13.99827,2.436746 -1.04844,-0.532025 -6.71577,-5.728378 -12.59407,-11.54745 l -10.68781,-10.580131 -7.41163,7.373127 -7.41164,7.373128 11.77218,11.880605 c 13.90985,14.037977 13.76574,13.567644 7.85495,25.638084 -4.84653,9.897106 -7.26965,19.139436 -8.01163,30.558246 -0.80937,12.45585 -1.34578,12.92259 -20.58025,17.90704 -10.82511,2.80524 -14.61818,4.13192 -14.61818,5.11293 0,0.7286 1.03775,5.18649 2.30611,9.90641 1.70735,6.35352 2.67039,8.58013 3.70909,8.57571 0.77164,-0.003 7.21713,-1.57419 14.32329,-3.4909 19.14266,-5.16327 19.55185,-5.07284 26.94738,5.95539 5.59869,8.34878 14.07261,16.79413 22.24636,22.17137 7.19674,4.73449 9.01322,6.9236 9.01322,10.86217 0,1.54702 -1.56822,8.62692 -3.48494,15.73309 -1.91671,7.10616 -3.48762,13.55294 -3.4909,14.32615 -0.004,1.0317 2.14242,2.00046 8.06675,3.64014 12.59484,3.48588 11.15784,4.61913 15.5283,-12.24598 z m 3.45352,-42.53392 c -19.14049,-4.31187 -34.94945,-19.23863 -40.68173,-38.41154 -2.13438,-7.13892 -2.13627,-21.66687 -0.003,-28.75437 6.09933,-20.271177 21.54362,-34.265787 42.50194,-38.512486 11.4898,-2.32813 21.6975,-0.789513 33.84864,5.102037 23.49852,11.39339 35.09329,39.614749 26.67209,64.919119 -5.37573,16.15321 -19.60492,29.81632 -36.15539,34.71703 -6.9124,2.0468 -19.29562,2.49149 -26.18181,0.94021 z m 25.73421,-22.19543 c 16.49764,-8.12175 23.43343,-25.91552 16.91438,-43.39378 -2.66235,-7.13801 -11.38745,-15.86311 -18.52546,-18.52546 -17.61206,-6.568945 -35.70434,0.61399 -43.67448,17.3395 -2.43466,5.1092 -2.70319,6.49634 -2.70319,13.96363 0,7.50339 0.26314,8.84639 2.77038,14.13881 3.25517,6.87121 8.84269,12.78906 15.0406,15.92978 6.31854,3.20185 10.04598,3.94897 17.84062,3.57594 5.46856,-0.26171 7.95892,-0.87302 12.33715,-3.02842 z"
     id="path305"
     inkscape:connector-curvature="0" />
</svg>
