<?xml version="1.0" encoding="UTF-8" standalone="no"?>
<!-- Created with Inkscape (http://www.inkscape.org/) -->

<svg
   xmlns:dc="http://purl.org/dc/elements/1.1/"
   xmlns:cc="http://creativecommons.org/ns#"
   xmlns:rdf="http://www.w3.org/1999/02/22-rdf-syntax-ns#"
   xmlns:svg="http://www.w3.org/2000/svg"
   xmlns="http://www.w3.org/2000/svg"
   xmlns:sodipodi="http://sodipodi.sourceforge.net/DTD/sodipodi-0.dtd"
   xmlns:inkscape="http://www.inkscape.org/namespaces/inkscape"
   version="1.1"
   id="svg254"
   width="332.44443"
   height="454.57831"
   viewBox="0 0 332.44442 454.5783"
   sodipodi:docname="adv-icon-4.svg"
   inkscape:version="0.92.4 (unknown)">
  <path
     style="stroke-width:0.8888889"
     d="m 91.3445,453.30324 c -5.30457,-2.87822 -5.12228,-0.24587 -5.12228,-73.97103 v -67.45077 l -3.28312,-2.14893 c -3.00082,-1.96414 -3.97768,-3.82505 -11.36039,-21.64136 l -8.07726,-19.49244 -18.99238,-7.84039 c -10.44581,-4.31222 -19.5956,-8.34062 -20.33287,-8.95201 -0.73726,-0.61139 -1.87107,-2.38095 -2.51958,-3.93237 -1.02568,-2.45371 -0.83529,-5.40309 1.46318,-22.66666 1.45326,-10.91525 2.64581,-20.3002 2.65013,-20.85542 0.004,-0.55524 -5.3359,-7.97642 -11.86714,-16.49151 C 0.28802,170.11011 0,169.64735 0,165.52306 c 0,-2.57661 2.07041,-5.78812 12.96422,-20.10945 l 12.96423,-17.04315 -2.73578,-21.0178 C 19.53832,79.277837 17.66627,82.542998 43.62808,71.710009 l 19.93459,-8.318027 2.58906,-6.34864 C 77.46487,29.30233 80.21767,23.516677 82.71911,22.223131 c 3.44797,-1.783008 5.63645,-1.69844 26.94777,1.041311 13.79598,1.773592 18.9527,2.137624 20.10315,1.41916 0.85105,-0.531488 8.50042,-6.296418 16.99859,-12.810955 20.65945,-15.8371327 18.28173,-15.8402411 39.0073,0.051 8.53293,6.542582 16.17399,12.307511 16.98013,12.810955 1.04288,0.651286 6.81879,0.227169 20.0215,-1.470153 21.31571,-2.740318 23.49944,-2.824507 26.95206,-1.03909 2.52948,1.308049 5.21053,6.941033 16.14038,33.911545 l 2.92591,7.219973 14.71316,6.00107 c 22.83722,9.314641 25.40253,10.652681 27.04023,14.103868 1.33566,2.814689 1.25628,4.27107 -1.30559,23.952775 l -2.72772,20.95587 12.96423,17.04315 c 10.89382,14.32133 12.96423,17.53284 12.96423,20.10945 0,4.12429 -0.28802,4.58705 -13.90279,22.33729 -6.53125,8.51509 -11.87499,15.96718 -11.87499,16.56018 0,0.59301 1.19428,9.97382 2.65396,20.84624 2.31338,17.23119 2.50216,20.13121 1.47103,22.59798 -0.65062,1.55647 -1.77017,3.31691 -2.4879,3.91207 -0.71773,0.59518 -9.87969,4.6536 -20.35992,9.01873 l -19.05495,7.9366 -8.05021,19.42572 c -7.35592,17.75035 -8.33336,19.61105 -11.33334,21.57464 l -3.28312,2.14893 v 67.45077 c 0,74.02236 0.20476,71.1653 -5.30424,74.01411 -5.30874,2.74526 -6.24004,2.29886 -40.10456,-19.22342 -17.80294,-11.31448 -33.04164,-20.75399 -33.86379,-20.97667 -0.90149,-0.24418 -14.62442,7.92123 -34.57327,20.57179 -34.84731,22.0984 -35.67338,22.4927 -41.03185,19.58522 z m 46.87772,-47.04737 c 11.73333,-7.42937 22.20704,-13.96993 23.27489,-14.53456 2.47309,-1.30766 6.94693,-1.31757 9.45021,-0.021 1.85377,0.9602 20.5579,12.70473 43.94156,27.5914 l 10.88889,6.93216 v -58.53722 -58.53722 l -8.22222,-1.03074 c -4.52222,-0.56691 -9.42753,-1.24599 -10.90068,-1.50908 -2.37218,-0.42363 -4.35416,0.81313 -17.33333,10.81611 -17.90419,13.79867 -19.16916,14.59475 -23.1975,14.59891 -3.77492,0.004 -4.73774,-0.61202 -23.54109,-15.05982 -12.47636,-9.58638 -14.41208,-10.78057 -16.78718,-10.35636 -1.47657,0.26372 -6.38467,0.94333 -10.90689,1.51024 l -8.22222,1.03077 v 58.57769 58.57769 l 5.11111,-3.27052 c 2.81111,-1.79879 14.71111,-9.34911 26.44445,-16.77849 z m 43.0168,-107.95888 c 8.23237,-6.32985 15.99358,-11.76624 17.24712,-12.08086 1.25355,-0.31461 10.54452,0.50682 20.64659,1.82541 10.10208,1.3186 18.67586,2.05499 19.05285,1.63642 0.377,-0.41857 3.63538,-7.96104 7.24086,-16.76104 3.60547,-8.8 7.55949,-17.09696 8.7867,-18.43769 1.50379,-1.64289 7.59291,-4.63681 18.67574,-9.18254 9.04445,-3.70966 16.74209,-7.03035 17.10587,-7.37929 0.36378,-0.34894 -0.33622,-8.17717 -1.55556,-17.39607 -1.21933,-9.21889 -2.21698,-18.25112 -2.21698,-20.07162 0,-2.87327 1.52464,-5.31091 11.55556,-18.47542 6.35556,-8.34098 11.55556,-15.54708 11.55556,-16.01355 0,-0.46647 -5.01101,-7.36637 -11.13557,-15.33311 -6.12457,-7.96674 -11.39404,-15.51078 -11.70995,-16.76451 -0.46675,-1.85235 2.00752,-25.24359 3.91088,-36.972569 l 0.4484,-2.763218 -17.79472,-7.343135 c -9.78709,-4.038721 -18.40304,-8.015324 -19.14656,-8.836894 -0.74351,-0.82157 -4.62576,-9.398383 -8.62722,-19.059583 l -7.2754,-17.56582 -2.77938,0.484095 c -8.10478,1.411642 -30.03495,3.985897 -33.89048,3.978209 -4.32894,-0.0086 -4.83498,-0.308802 -19.47041,-11.549183 -8.26429,-6.347176 -15.30295,-11.54032 -15.64147,-11.54032 -0.33852,0 -7.37683,5.197812 -15.6407,11.550695 -17.63522,13.557161 -14.53397,12.827684 -39.88793,9.382424 -8.78561,-1.193844 -16.08407,-2.060391 -16.21881,-1.925659 -0.13473,0.134732 -3.48549,8.013172 -7.44614,17.507643 -3.96065,9.494471 -7.78944,17.924288 -8.50843,18.732927 -0.71898,0.808639 -9.31693,4.803553 -19.10654,8.877586 l -17.79928,7.407335 0.44027,2.713058 c 1.89635,11.685889 4.3685,35.073959 3.90273,36.922409 -0.31591,1.25373 -5.58538,8.79777 -11.70995,16.76451 -6.12456,7.96674 -11.13556,14.86664 -11.13556,15.33311 0,0.46647 5.2,7.67257 11.55555,16.01355 9.90024,12.99301 11.55556,15.62697 11.55553,18.38736 -2e-5,1.77207 -1.00231,10.79965 -2.22732,20.06129 -1.22501,9.26164 -1.92499,17.12068 -1.55553,17.46452 0.36947,0.34385 8.07176,3.6712 17.11621,7.3941 11.0198,4.53601 17.1805,7.57158 18.67574,9.20214 1.22721,1.33827 5.18123,9.63322 8.7867,18.43322 3.60548,8.8 6.87733,16.35593 7.27078,16.79096 0.41377,0.4575 8.40324,-0.23189 18.95022,-1.63515 10.02917,-1.33437 19.35323,-2.16679 20.72015,-1.84983 1.36692,0.31696 9.0853,5.72643 17.15196,12.02105 8.06667,6.29463 14.77767,11.47112 14.91332,11.50332 0.13566,0.0322 6.98223,-5.12043 15.2146,-11.45028 z M 147.48314,271.1473 c -22.70042,-4.29477 -42.19622,-14.96408 -58.2623,-31.88474 -18.73962,-19.73641 -28.31281,-42.22829 -29.37362,-69.0123 -0.89076,-22.49062 5.2511,-45.23143 16.73724,-61.97118 4.48578,-6.53751 12.20735,-7.15609 16.77899,-1.34418 2.85817,3.63357 2.29027,8.31341 -1.85571,15.29213 -4.31338,7.26051 -9.09455,20.30379 -10.63008,28.99943 -1.639,9.28168 -0.70976,29.153 1.76253,37.69046 6.86759,23.71566 23.0467,43.43939 44.47091,54.21389 48.99659,24.64098 107.33695,-1.16369 122.70433,-54.27368 2.43406,-8.41216 3.34308,-27.24793 1.78199,-36.92499 -4.40566,-27.31057 -22.40638,-51.49716 -47.23974,-63.473496 -4.10784,-1.98108 -8.8688,-4.288408 -10.57991,-5.127397 -2.32122,-1.138137 -3.4461,-2.494523 -4.43052,-5.342352 -1.226,-3.546674 -1.19453,-4.050154 0.44444,-7.111111 1.02718,-1.918373 3.09073,-3.943252 4.94085,-4.848265 2.96558,-1.450652 3.49751,-1.45889 7.99329,-0.123787 6.59849,1.959542 16.88604,7.279196 24.57631,12.708326 22.17101,15.652146 37.62561,39.062042 43.47803,65.858422 1.2718,5.82317 1.63214,11.02032 1.57157,22.66667 -0.0691,13.28431 -0.35676,16.15568 -2.37959,23.75176 -5.32078,19.98042 -13.03704,33.93085 -26.76465,48.3885 -14.37641,15.14097 -31.01776,24.99556 -51.11012,30.26614 -10.80995,2.83565 -33.74086,3.65891 -44.61424,1.60175 z M 98.13333,97.894702 c -2.49971,-2.499707 -3.02223,-3.682907 -3.02223,-6.843591 0,-3.422938 0.45021,-4.243147 4.31791,-7.866667 12.48179,-11.693763 35.29121,-21.025952 57.04484,-23.33919 10.78668,-1.147034 13.44193,-0.704852 16.97337,2.826594 4.83709,4.837093 2.60747,13.899821 -3.90663,15.879273 -1.58066,0.48032 -6.27393,1.090997 -10.42949,1.357061 -16.10881,1.031387 -30.92859,6.736176 -46.5415,17.915898 -5.93731,4.25145 -10.23442,4.27247 -14.43627,0.07058 z"
     id="path326"
     inkscape:connector-curvature="0" />
</svg>
