<?xml version="1.0" encoding="UTF-8" standalone="no"?>
<!-- Created with Inkscape (http://www.inkscape.org/) -->

<svg
   xmlns:dc="http://purl.org/dc/elements/1.1/"
   xmlns:cc="http://creativecommons.org/ns#"
   xmlns:rdf="http://www.w3.org/1999/02/22-rdf-syntax-ns#"
   xmlns:svg="http://www.w3.org/2000/svg"
   xmlns="http://www.w3.org/2000/svg"
   xmlns:sodipodi="http://sodipodi.sourceforge.net/DTD/sodipodi-0.dtd"
   xmlns:inkscape="http://www.inkscape.org/namespaces/inkscape"
   version="1.1"
   id="svg274"
   width="450.35733"
   height="402.83054"
   viewBox="0 0 450.35733 402.83053"
   sodipodi:docname="adv-icon-1.svg"
   inkscape:version="0.92.4 (unknown)">
  <path
     style="stroke-width:0.88073397"
     d="m 189.20296,401.66798 c -4.87692,-1.52493 -8.83693,-4.05687 -12.73837,-8.14463 -2.44233,-2.55895 -69.58229,-117.27358 -76.74921,-131.13288 -3.87482,-7.49306 -3.4853,-18.90838 0.92294,-27.04814 3.23026,-5.96465 7.90516,-9.91383 20.02224,-16.91406 8.36272,-4.83127 11.33532,-6.11262 14.24098,-6.13858 6.59574,-0.0589 11.35043,6.87169 8.83791,12.88249 -1.57315,3.7635 -2.48154,4.48892 -13.72804,10.96274 -9.77278,5.62552 -13.31415,9.21691 -13.31415,13.50225 0,2.63951 30.91706,56.99106 32.21948,56.64117 0.44442,-0.11939 36.50942,-20.82765 80.14443,-46.01835 51.63297,-29.80796 80.17285,-45.80128 81.73182,-45.80128 7.70655,0 12.64195,8.42347 8.77293,14.97319 -1.09187,1.84838 -21.58952,14.10557 -81.02752,48.45284 -43.76125,25.28818 -79.56591,46.27945 -79.56591,46.64725 0,1.27647 8.15787,15.06036 8.76289,14.80617 3.2273,-1.35593 238.68441,-137.8274 238.70106,-138.35167 0.0122,-0.38588 -1.80962,-3.87758 -4.04863,-7.75936 -3.01571,-5.22836 -4.4278,-6.92082 -5.44777,-6.52942 -0.75727,0.2906 -11.90517,6.60224 -24.77312,14.02588 -28.83477,16.63506 -28.32727,16.37733 -32.24794,16.37733 -2.48126,0 -3.89735,-0.68298 -6.20887,-2.9945 -3.96908,-3.96907 -4.18918,-8.89493 -0.57248,-12.81169 1.33211,-1.44264 14.20949,-9.40782 28.61639,-17.70041 23.47576,-13.51262 26.10284,-15.24849 25.31239,-16.72547 -8.3021,-15.51262 -30.77664,-53.0782 -33.04042,-55.22616 l -3.00653,-2.8527 -6.75229,3.55616 c -5.35592,2.82075 -7.31872,3.43896 -9.49137,2.98943 -4.03236,-0.83432 -7.63328,-4.75128 -8.13505,-8.84901 -0.63773,-5.20796 1.67423,-8.027504 10.76243,-13.125274 7.07824,-3.97034 8.36368,-4.39449 13.15891,-4.34199 6.49475,0.0711 12.3501,2.96366 18.30884,9.04459 2.92382,2.983784 14.13217,21.619384 41.1359,68.394814 20.41438,35.36147 37.70028,65.68074 38.4131,67.37615 4.87999,11.60693 0.20546,27.49518 -10.25478,34.85493 -2.17981,1.53371 -20.80734,12.49999 -41.39449,24.36953 -64.69073,37.29747 -150.33724,86.73923 -168.5911,97.32376 -9.64988,5.59549 -19.32388,10.70891 -21.49778,11.36316 -4.90285,1.47554 -12.62003,1.44098 -17.47882,-0.0783 z m 121.59163,-82.0598 c 60.12353,-34.6889 111.13479,-64.2162 113.35834,-65.61623 8.09855,-5.09914 8.06472,-9.05019 -0.20025,-23.38889 -3.45722,-5.99787 -6.57833,-11.08597 -6.93579,-11.30689 -0.35745,-0.22092 -22.99304,12.50782 -50.30129,28.28609 -27.30825,15.77828 -80.96146,46.74714 -119.22935,68.8197 -38.26789,22.07256 -69.71598,40.24062 -69.88464,40.37347 -0.70354,0.55417 12.68413,22.6362 14.67131,24.19932 5.36369,4.21909 0.32956,6.82559 118.52167,-61.36657 z M 20.09094,200.30938 C 13.0953,198.08316 5.91788,191.72067 2.46098,184.68118 L 0,179.66972 V 100.84404 22.018349 L 2.33215,17.043997 C 5.30207,10.709323 10.70933,5.3020662 17.044,2.3321502 L 22.01835,0 h 136.0734 136.0734 l 4.15463,1.9193602 c 6.19609,2.862482 12.38371,9.1152258 15.32763,15.4889528 l 2.53609,5.49077 v 77.963637 77.96364 l -2.87091,5.83149 c -3.34125,6.78685 -8.11602,11.44474 -15.07844,14.70934 l -4.94973,2.32088 -133.87157,0.17789 C 28.40966,202.04004 25.42451,202.00669 20.09094,200.30938 Z m 271.02047,-19.77383 c 5.53979,-2.86473 5.3083,0.85143 5.05007,-81.069714 l -0.23486,-74.509819 -2.87628,-2.569752 -2.87628,-2.569751 H 158.55967 c -92.7568,0 -132.23372,0.282184 -133.71211,0.955783 -1.15375,0.525681 -2.75772,2.073071 -3.56438,3.438643 -1.3373,2.263875 -1.46666,9.061951 -1.46666,77.07725 v 74.59438 l 2.99449,2.99449 2.9945,2.9945 h 131.36117 c 115.69437,0 131.6693,-0.15934 133.94473,-1.33601 z M 43.30508,159.81314 c -2.41969,-1.90332 -4.32485,-7.01351 -3.53933,-9.49352 2.56384,-8.09446 2.5057,-8.08109 35.14098,-8.08109 h 27.87493 l 2.9945,2.99449 c 3.22472,3.22473 3.98353,7.51762 2.01068,11.37534 -2.55773,5.00138 -2.31688,4.96549 -33.46622,4.98673 -27.62023,0.0188 -28.81337,-0.0497 -31.01554,-1.78195 z m 84.06392,0.36533 c -5.66374,-3.96703 -5.13317,-13.56216 0.9231,-16.69398 1.92824,-0.99713 7.97635,-1.24596 30.28436,-1.24596 h 27.87493 l 2.99449,2.99449 c 3.22473,3.22473 3.98354,7.51762 2.01068,11.37534 -2.55714,5.00023 -2.3246,4.96549 -33.38902,4.98673 -25.08077,0.0172 -28.9034,-0.15926 -30.69854,-1.41662 z m 83.2664,-0.37251 c -1.26468,-0.99479 -2.75094,-3.31576 -3.3028,-5.1577 -0.83866,-2.79921 -0.75035,-3.88219 0.53794,-6.59705 2.71409,-5.71953 3.26495,-5.81268 34.37564,-5.81268 h 27.87493 l 2.9945,2.99449 c 3.22473,3.22473 3.98353,7.51762 2.01068,11.37534 -2.55773,5.00138 -2.31688,4.96549 -33.46622,4.98673 -27.65737,0.0188 -28.81074,-0.0477 -31.02467,-1.78913 z M 60.61579,120.74633 c -8.09321,-2.60209 -14.67551,-8.65268 -18.66188,-17.15439 -2.26656,-4.833884 -2.3206,-5.362004 -2.30918,-22.564414 0.0108,-16.284226 0.16374,-17.993079 2.02459,-22.624524 2.67404,-6.655378 8.90679,-13.175808 15.57839,-16.297422 5.23838,-2.451014 5.43784,-2.472552 22.89909,-2.472552 21.89825,0 24.55116,0.708119 32.65688,8.7168 8.57055,8.467947 9.37004,11.479665 9.01939,33.976268 l -0.28178,18.077584 -3.00163,5.5356 c -3.52567,6.50205 -7.40447,10.15541 -14.13249,13.31112 -4.69414,2.20172 -5.56974,2.29842 -22.49891,2.48463 -12.78846,0.14067 -18.62235,-0.13022 -21.29247,-0.9887 z M 98.95208,99.077566 c 3.25304,-3.25304 3.98433,-7.89028 3.52519,-22.35403 -0.27198,-8.567762 -0.60207,-10.489374 -2.16292,-12.591474 -3.12394,-4.207242 -5.00081,-4.655516 -19.55074,-4.669536 -20.67827,-0.01992 -21.31406,0.610217 -21.31406,21.12463 0,20.877804 0.2668,21.137624 21.7062,21.137624 h 15.14912 z"
     id="path284"
     inkscape:connector-curvature="0" />
</svg>
