<?xml version="1.0" encoding="UTF-8" standalone="no"?>
<!-- Created with Inkscape (http://www.inkscape.org/) -->

<svg
   xmlns:dc="http://purl.org/dc/elements/1.1/"
   xmlns:cc="http://creativecommons.org/ns#"
   xmlns:rdf="http://www.w3.org/1999/02/22-rdf-syntax-ns#"
   xmlns:svg="http://www.w3.org/2000/svg"
   xmlns="http://www.w3.org/2000/svg"
   xmlns:sodipodi="http://sodipodi.sourceforge.net/DTD/sodipodi-0.dtd"
   xmlns:inkscape="http://www.inkscape.org/namespaces/inkscape"
   version="1.1"
   id="svg130"
   width="383.57968"
   height="511.75626"
   viewBox="0 0 383.57968 511.75626"
   sodipodi:docname="hot-icon.svg"
   inkscape:version="0.92.4 (unknown)">
  <path
     d="M 168.38596,510.31353 C 97.40413,501.63126 35.78043,452.54041 11.54886,385.3735 1.62067,357.85381 -1.7001,330.41658 0.79536996,296.5251 4.37147,247.95747 17.72834,211.37754 40.9759,186.48427 c 9.14581,-9.79324 17.75463,-15.61077 23.10094,-15.61077 6.3699,0 8.97815,3.43932 11.7546,15.5 7.38107,32.06276 22.70811,55.87496 41.55452,64.55941 11.11881,5.12356 10.49854,5.40342 10.50967,-4.74202 0.0284,-25.89292 3.52709,-63.06566 8.07708,-85.81739 9.54458,-47.72657 35.2589,-94.616869 72.41325,-132.046223 11.31194,-11.395669 29.73347,-26.7583313 33.53176,-27.96386234 3.37758,-1.072 8.4368,0.31549 10.96565,3.00732204 2.00192,2.130944 2.43331,4.000072 3.16999,13.7346903 2.9361,38.79834 13.19611,60.813918 54.42407,116.781263 25.57975,34.72474 35.12944,49.46995 45.65057,70.48681 16.14129,32.24363 24.30845,62.77282 26.94743,100.73058 3.9789,57.23075 -15.68365,110.33139 -55.65557,150.30332 -42.08173,42.08172 -100.10496,62.11413 -159.0339,54.90613 z m 39.44028,-22.06822 c 17.14289,-4.84737 32.28142,-17.73097 40.38768,-34.37181 8.40818,-17.26065 9.72401,-34.71234 4.24559,-56.30892 -3.52827,-13.90883 -9.44234,-25.5291 -23.93499,-47.0287 -13.02725,-19.32571 -17.65909,-27.44261 -20.61502,-36.12603 l -1.68968,-4.96365 -4.72993,6.46365 c -6.44046,8.80116 -14.224,24.84499 -16.55138,34.11655 -2.56983,10.23741 -4.05255,24.26492 -4.05255,38.3398 0,13.48759 -1.2341,17.54276 -6.10535,20.06178 -7.3977,3.8255 -23.07617,-1.41431 -30.94282,-10.34123 -2.2844,-2.59229 -5.30082,-6.66836 -6.70315,-9.05793 l -2.5497,-4.34469 -1.23177,2.92953 c -2.45188,5.8313 -4.64269,17.98802 -5.18646,28.77943 -0.74506,14.78614 1.24022,24.85325 7.39129,37.48041 3.81163,7.82466 6.05621,10.92243 12.72785,17.5659 8.39519,8.35974 13.55951,11.77862 23.29285,15.42033 11.12463,4.16226 24.60532,4.67756 36.24754,1.38558 z"
     id="path140"
     inkscape:connector-curvature="0" />
</svg>
