<?xml version="1.0" encoding="UTF-8" standalone="no"?>
<!-- Created with Inkscape (http://www.inkscape.org/) -->

<svg
   xmlns:dc="http://purl.org/dc/elements/1.1/"
   xmlns:cc="http://creativecommons.org/ns#"
   xmlns:rdf="http://www.w3.org/1999/02/22-rdf-syntax-ns#"
   xmlns:svg="http://www.w3.org/2000/svg"
   xmlns="http://www.w3.org/2000/svg"
   xmlns:sodipodi="http://sodipodi.sourceforge.net/DTD/sodipodi-0.dtd"
   xmlns:inkscape="http://www.inkscape.org/namespaces/inkscape"
   version="1.1"
   id="svg69"
   width="495.88489"
   height="681.64178"
   viewBox="0 0 495.88489 681.64179"
   sodipodi:docname="map-marker-1.svg"
   inkscape:version="0.92.4 (unknown)">

  <path
     style="fill:#df5800;stroke-width:1.33333337"
     d="M 246.36062,678.65781 C 244.61108,676.51758 233.87966,664.62802 222.51299,652.23657 165.4186,589.99471 114.38817,523.94896 79.536006,467.18964 -14.204714,314.52601 -25.223034,187.22436 47.220376,93.826505 59.971506,77.38708 83.076956,56.06539 101.44747,43.785786 178.44507,-7.6825601 275.39189,-14.196335 359.17966,26.468977 435.90004,63.704221 485.50524,132.29307 494.42385,213.47042 c 12.0898,110.04155 -50.9366,247.16782 -185.8651,404.38589 -16.4678,19.1882 -53.4491,60.07174 -57.01502,63.03119 -1.66067,1.37823 -2.54468,0.99793 -5.18311,-2.22969 z m 33.47436,-330.30369 c 22.68471,-5.68983 40.11496,-15.56261 58.4488,-33.10634 45.86606,-43.88943 52.75912,-111.5499 16.86087,-165.50166 -21.87394,-32.87449 -53.93112,-52.151271 -94.0729,-56.56837 -47.98635,-5.280295 -94.47996,16.72262 -121.14514,57.33144 -20.34693,30.98668 -26.91313,66.88768 -18.70357,102.26279 8.30712,35.79551 32.84674,66.97636 66.96563,85.08872 27.51891,14.60871 60.28262,18.36012 91.64631,10.49342 z"
     id="path79"
     inkscape:connector-curvature="0" />
</svg>
