<?xml version="1.0" encoding="UTF-8" standalone="no"?>
<!-- Created with Inkscape (http://www.inkscape.org/) -->

<svg
   xmlns:dc="http://purl.org/dc/elements/1.1/"
   xmlns:cc="http://creativecommons.org/ns#"
   xmlns:rdf="http://www.w3.org/1999/02/22-rdf-syntax-ns#"
   xmlns:svg="http://www.w3.org/2000/svg"
   xmlns="http://www.w3.org/2000/svg"
   xmlns:sodipodi="http://sodipodi.sourceforge.net/DTD/sodipodi-0.dtd"
   xmlns:inkscape="http://www.inkscape.org/namespaces/inkscape"
   version="1.1"
   id="svg427"
   width="369.8757"
   height="511.55173"
   viewBox="0 0 369.8757 511.55173"
   sodipodi:docname="marker-icon.svg"
   inkscape:version="0.92.4 (unknown)">
  <metadata
     id="metadata433">
    <rdf:RDF>
      <cc:Work
         rdf:about="">
        <dc:format>image/svg+xml</dc:format>
        <dc:type
           rdf:resource="http://purl.org/dc/dcmitype/StillImage" />
        <dc:title></dc:title>
      </cc:Work>
    </rdf:RDF>
  </metadata>
  <defs
     id="defs431" />
  <sodipodi:namedview
     pagecolor="#ffffff"
     bordercolor="#666666"
     borderopacity="1"
     objecttolerance="10"
     gridtolerance="10"
     guidetolerance="10"
     inkscape:pageopacity="0"
     inkscape:pageshadow="2"
     inkscape:window-width="1920"
     inkscape:window-height="978"
     id="namedview429"
     showgrid="false"
     inkscape:zoom="1.5566406"
     inkscape:cx="593.51233"
     inkscape:cy="256.96347"
     inkscape:window-x="0"
     inkscape:window-y="27"
     inkscape:window-maximized="1"
     inkscape:current-layer="svg427" />
  <path
     style="fill:#010101"
     d="M 178.32752,510.49532 C 174.58964,508.80186 162.75976,495.67284 144.08339,472.49055 61.885981,370.46192 11.482961,277.57923 1.5037314,209.74474 -0.49461864,196.1608 -0.50229864,172.66978 1.4871314,159.00142 16.543061,55.560879 114.10641,-15.175979 216.94018,2.7903912 295.56875,16.527802 356.8568,79.741249 368.39322,159.00142 c 1.9648,13.49904 1.97868,37.42668 0.0292,50.37166 -9.22747,61.27287 -49.27902,140.13378 -116.81146,230 -22.68955,30.19324 -53.02019,66.71715 -58.24945,70.14349 -3.40258,2.22946 -11.15885,2.73441 -15.03401,0.97875 z m 17.27916,-53.87224 c 52.32143,-63.7727 97.37742,-133.84738 120.40669,-187.26609 7.08353,-16.43096 14.34536,-38.78094 17.59433,-54.15065 2.37565,-11.23838 2.71244,-15.07025 2.70992,-30.83326 -0.002,-14.87097 -0.39352,-19.82527 -2.25013,-28.5 C 326.4515,120.28859 307.50313,88.93472 280.4962,67.228663 222.50521,20.620053 140.68818,22.339671 84.634411,71.345256 48.231851,103.17058 28.506761,153.11118 33.869631,199.87308 c 7.05014,61.47404 54.51297,149.40277 134.811939,249.75 8.47223,10.5875 15.73497,19.25 16.13942,19.25 0.40444,0 5.258,-5.5125 10.78569,-12.25 z m -22.19447,-178.7291 c -32.58698,-4.60088 -60.19333,-25.07507 -73.560679,-54.55614 -5.94046,-13.1014 -7.36605,-20.42537 -7.38974,-37.96476 -0.0186,-13.74207 0.30109,-17.11415 2.26512,-23.89503 5.01929,-17.32934 12.947109,-30.62974 25.693089,-43.10497 35.69926,-34.940949 93.3411,-34.940949 129.04037,0 12.65411,12.38531 20.73628,25.8829 25.48868,42.56727 2.67994,9.40853 3.69729,28.50852 2.07372,38.93273 -3.47878,22.33571 -16.91587,45.15984 -34.58258,58.7417 -9.20184,7.0742 -24.9257,14.7081 -35.41674,17.19473 -9.88499,2.34298 -25.09792,3.28644 -33.61124,2.08447 z m 30.84836,-35.90063 c 12.93905,-4.58168 24.62302,-14.19718 31.92473,-26.27291 19.4059,-32.09391 4.22932,-73.63777 -31.81296,-87.08374 -5.04433,-1.88185 -7.95262,-2.21306 -19.43216,-2.21306 -11.47954,0 -14.38783,0.33121 -19.43216,2.21306 -14.89636,5.55725 -26.98142,16.1854 -33.5444,29.50049 -6.65672,13.50524 -8.37587,25.68806 -5.52432,39.14833 4.97316,23.475 24.16921,42.45299 47.50088,46.96128 6.02033,1.16329 24.56321,-0.21484 30.32039,-2.25345 z"
     id="path499"
     inkscape:connector-curvature="0" />
</svg>
