<?xml version="1.0" encoding="UTF-8" standalone="no"?>
<!-- Created with Inkscape (http://www.inkscape.org/) -->

<svg
   xmlns:dc="http://purl.org/dc/elements/1.1/"
   xmlns:cc="http://creativecommons.org/ns#"
   xmlns:rdf="http://www.w3.org/1999/02/22-rdf-syntax-ns#"
   xmlns:svg="http://www.w3.org/2000/svg"
   xmlns="http://www.w3.org/2000/svg"
   xmlns:sodipodi="http://sodipodi.sourceforge.net/DTD/sodipodi-0.dtd"
   xmlns:inkscape="http://www.inkscape.org/namespaces/inkscape"
   version="1.1"
   id="svg447"
   width="471.52484"
   height="472.21954"
   viewBox="0 0 471.52484 472.21955"
   sodipodi:docname="phone-icon.svg"
   inkscape:version="0.92.4 (unknown)">
  <metadata
     id="metadata453">
    <rdf:RDF>
      <cc:Work
         rdf:about="">
        <dc:format>image/svg+xml</dc:format>
        <dc:type
           rdf:resource="http://purl.org/dc/dcmitype/StillImage" />
        <dc:title></dc:title>
      </cc:Work>
    </rdf:RDF>
  </metadata>
  <defs
     id="defs451" />
  <sodipodi:namedview
     pagecolor="#ffffff"
     bordercolor="#666666"
     borderopacity="1"
     objecttolerance="10"
     gridtolerance="10"
     guidetolerance="10"
     inkscape:pageopacity="0"
     inkscape:pageshadow="2"
     inkscape:window-width="1920"
     inkscape:window-height="978"
     id="namedview449"
     showgrid="false"
     inkscape:zoom="0.49934896"
     inkscape:cx="798.66087"
     inkscape:cy="216.22785"
     inkscape:window-x="0"
     inkscape:window-y="27"
     inkscape:window-maximized="1"
     inkscape:current-layer="svg447" />
  <path
     style="fill:#020202;stroke-width:0.92307693"
     d="M 327.31276,471.62833 C 298.3822,468.49838 263.31957,456.21201 227.15891,436.53321 185.57581,413.90349 153.75126,390.08345 119.54314,355.98498 66.96755,303.57789 29.15806,245.10217 9.7182303,186.13101 -0.4858297,155.17675 -2.7425897,127.12842 3.3664603,107.18733 7.2754103,94.427766 11.82145,87.351061 25.49802,72.735661 44.30059,52.6424 58.42013,39.126118 65.09233,34.833029 c 15.56338,-10.013934 34.79244,-10.04851 49.70636,-0.08937 6.82999,4.560891 66.72926,64.547197 71.44308,71.546871 5.84085,8.67327 7.57932,14.38012 7.58701,24.90586 0.0126,17.15294 -3.56325,23.20295 -28.5886,48.37029 l -17.80773,17.90875 3.6385,7.23659 c 20.06028,39.89793 75.45194,95.17339 115.66473,115.42212 l 7.26907,3.66026 19.03862,-18.85101 c 10.47124,-10.36806 20.92146,-19.9392 23.22272,-21.2692 13.68809,-7.91103 28.58468,-8.57808 42.43129,-1.90005 6.49852,3.13415 9.02425,5.44064 41.18643,37.61134 33.44161,33.45047 34.35485,34.46063 38.07749,42.1186 6.88127,14.15573 6.88147,26.52061 6.5e-4,40.53777 -3.52238,7.17555 -5.39902,9.38784 -24.58511,28.98237 -11.42441,11.6676 -22.06629,22.33251 -23.64863,23.69979 -15.46469,13.36285 -38.20994,19.52307 -62.41545,16.90432 z m 24.44544,-27.5216 c 7.80988,-1.65431 14.31116,-4.74248 19.86225,-9.43476 9.03117,-7.63394 40.42044,-40.54801 42.43249,-44.49373 2.71538,-5.32497 2.72579,-11.37007 0.0288,-16.73293 -2.2005,-4.37563 -58.37037,-61.61089 -64.92055,-66.15193 -4.60816,-3.19469 -12.70659,-3.95794 -17.31582,-1.63196 -1.7314,0.87373 -12.70185,11.03543 -24.37877,22.58157 -23.47085,23.20798 -25.76629,24.78889 -34.49224,23.75544 -5.54044,-0.65619 -23.90356,-10.08849 -38.63924,-19.84723 -45.15162,-29.90175 -93.92826,-83.88263 -111.23634,-123.10472 -4.28633,-9.71333 -4.96156,-16.63317 -2.1471,-22.00394 0.93116,-1.77693 10.89787,-12.36923 22.14826,-23.53846 21.49143,-21.33641 24.5286,-25.34705 24.51185,-32.36836 -0.006,-2.32443 -0.97518,-5.29296 -2.69379,-8.24703 -3.71864,-6.39184 -63.00982,-65.410664 -67.65251,-67.341761 -4.69357,-1.952254 -10.12387,-1.790375 -14.87616,0.443463 -5.54745,2.607609 -46.36728,43.90232 -49.77298,50.352018 -3.93738,7.45659 -5.30391,14.33051 -5.30064,26.6633 0.005,18.14793 4.01896,35.93534 13.53375,59.97046 30.43117,76.87165 94.38242,153.61861 167.6388,201.18089 56.66565,36.79061 112.87599,56.3878 143.26994,49.94967 z m 14.78533,-218.16625 c -4.71918,-2.91501 -5.81962,-4.91965 -8.1859,-14.91208 -5.84462,-24.68087 -15.80472,-43.35878 -32.37662,-60.71497 -17.93368,-18.78243 -39.45152,-31.10824 -64.06182,-36.69577 -10.59342,-2.40514 -13.23328,-3.74966 -15.87781,-8.08681 -5.04261,-8.270115 1.50586,-20.052513 11.11753,-20.003345 4.71165,0.0241 17.68342,3.087412 27.23077,6.430602 42.22306,14.785213 76.73533,47.896593 93.21319,89.429553 3.77866,9.52422 8.78764,28.1985 8.78538,32.75335 -0.005,9.97473 -11.61909,16.8804 -19.84472,11.79947 z m 87.55533,-2.98328 c -5.74516,-1.66435 -7.97889,-5.66102 -10.80782,-19.33777 -6.87625,-33.24386 -23.48008,-68.22391 -45.33054,-95.49997 -6.94193,-8.665641 -22.2381,-24.117311 -31.87851,-32.202574 -27.74127,-23.26618 -61.61438,-39.879105 -96.183,-47.172555 -6.2455,-1.317705 -12.79645,-3.105054 -14.55765,-3.971887 -9.77086,-4.809043 -9.77678,-18.4861585 -0.0102,-23.5489855 4.24782,-2.20199304 10.10717,-1.57093904 28.17581,3.034546 85.87261,21.8879305 155.13658,88.2174265 180.90964,173.2451655 4.93346,16.27594 7.9843,32.40247 6.88389,36.38781 -1.1119,4.02698 -5.10499,7.97181 -9.28192,9.16974 -3.62412,1.03938 -3.99112,1.03459 -7.91975,-0.10352 z"
     id="path457"
     inkscape:connector-curvature="0" />
</svg>
