<?xml version="1.0" encoding="UTF-8" standalone="no"?>
<!-- Created with Inkscape (http://www.inkscape.org/) -->

<svg
   xmlns:dc="http://purl.org/dc/elements/1.1/"
   xmlns:cc="http://creativecommons.org/ns#"
   xmlns:rdf="http://www.w3.org/1999/02/22-rdf-syntax-ns#"
   xmlns:svg="http://www.w3.org/2000/svg"
   xmlns="http://www.w3.org/2000/svg"
   xmlns:sodipodi="http://sodipodi.sourceforge.net/DTD/sodipodi-0.dtd"
   xmlns:inkscape="http://www.inkscape.org/namespaces/inkscape"
   version="1.1"
   id="svg112"
   width="574.71997"
   height="574.71997"
   viewBox="0 0 574.71997 574.71997"
   sodipodi:docname="soc-icon-1.svg"
   inkscape:version="0.92.4 (unknown)">
  <path
     style="stroke-width:0.31999999"
     d="m 205.76,574.43162 c 0,-0.16019 -4.2311,-0.37725 -9.52,-0.48835 -17.5718,-0.36916 -43.6482,-1.74096 -46.1972,-2.43034 -0.6364,-0.17213 -2.1124,-0.31296 -3.28,-0.31296 -1.2019,0 -2.1228,-0.13882 -2.1228,-0.32 0,-0.17677 -0.8356,-0.32 -1.8667,-0.32 -1.0267,0 -1.9736,-0.108 -2.1043,-0.24 -0.1308,-0.132 -1.7028,-0.4239 -3.4934,-0.64867 -1.7906,-0.2248 -3.9036,-0.49075 -4.6956,-0.59104 -0.792,-0.10029 -1.5768,-0.31239 -1.744,-0.47133 -0.1672,-0.15891 -0.8272,-0.28896 -1.4667,-0.28896 -0.6395,0 -1.2699,-0.108 -1.401,-0.24 -0.1311,-0.132 -1.1991,-0.40675 -2.3734,-0.61056 -1.1742,-0.20381 -2.7109,-0.53965 -3.4149,-0.74634 -0.704,-0.20668 -1.712,-0.45401 -2.24,-0.54963 -0.528,-0.0956 -1.104,-0.28365 -1.28,-0.41785 -0.176,-0.13418 -1.0759,-0.34557 -1.9997,-0.46976 -0.9238,-0.1242 -1.7603,-0.35632 -1.8589,-0.51584 -0.099,-0.15952 -0.6027,-0.29002 -1.1203,-0.29002 -0.5176,0 -0.9411,-0.144 -0.9411,-0.32 0,-0.176 -0.432,-0.32 -0.96,-0.32 -0.528,0 -0.96,-0.144 -0.96,-0.32 0,-0.176 -0.36,-0.32 -0.8,-0.32 -0.44,0 -0.8,-0.12765 -0.8,-0.28368 0,-0.156 -0.6692,-0.384 -1.4871,-0.50666 -0.8178,-0.12262 -1.7538,-0.35497 -2.08,-0.51632 -0.3261,-0.16134 -0.879,-0.43734 -1.2286,-0.61334 -0.3496,-0.176 -0.8896,-0.3209 -1.2,-0.32198 -0.3104,0 -0.9768,-0.21706 -1.4809,-0.48 -0.5041,-0.26292 -1.1881,-0.47802 -1.52,-0.47802 -0.3319,0 -0.6034,-0.144 -0.6034,-0.32 0,-0.176 -0.36,-0.32 -0.8,-0.32 -0.44,0 -0.8,-0.10883 -0.8,-0.24189 0,-0.27981 -1.3616,-0.90605 -2.6431,-1.21565 -0.4856,-0.11734 -0.9621,-0.3414 -1.0588,-0.49792 -0.097,-0.15651 -0.4554,-0.28454 -0.797,-0.28454 -0.3416,0 -0.6211,-0.10877 -0.6211,-0.2417 0,-0.23273 -1.6245,-0.8863 -3.12,-1.25526 -0.396,-0.0977 -0.72,-0.30486 -0.72,-0.46035 0,-0.15549 -0.216,-0.28269 -0.48,-0.28269 -0.264,0 -0.48,-0.144 -0.48,-0.32 0,-0.176 -0.2243,-0.32 -0.4984,-0.32 -0.2742,0 -1.1433,-0.36 -1.9314,-0.8 -0.7881,-0.44 -1.6438,-0.8 -1.9016,-0.8 -0.2577,0 -0.47,-0.108 -0.4717,-0.24 0,-0.132 -0.6496,-0.52429 -1.44,-0.87171 -0.7903,-0.34746 -1.4369,-0.74346 -1.4369,-0.88 0,-0.13658 -0.216,-0.24829 -0.48,-0.24829 -0.264,0 -0.4814,-0.108 -0.4831,-0.24 0,-0.132 -0.6496,-0.52429 -1.44,-0.87171 -0.7903,-0.34746 -1.4369,-0.74346 -1.4369,-0.88 0,-0.13658 -0.204,-0.24829 -0.4534,-0.24829 -0.2493,0 -0.5013,-0.108 -0.56,-0.24 -0.059,-0.132 -0.64,-0.51107 -1.2918,-0.8424 -0.6519,-0.33133 -1.4549,-0.85373 -1.7846,-1.16086 -0.3297,-0.30714 -0.9124,-0.65776 -1.2948,-0.77917 -0.3825,-0.12138 -0.6954,-0.35501 -0.6954,-0.51914 0,-0.16412 -0.216,-0.29843 -0.48,-0.29843 -0.264,0 -0.48,-0.144 -0.48,-0.32 0,-0.176 -0.216,-0.32 -0.48,-0.32 -0.264,0 -0.48,-0.12131 -0.48,-0.2696 0,-0.14829 -0.504,-0.54105 -1.12,-0.87277 -0.616,-0.33174 -1.12,-0.71443 -1.12,-0.8504 0,-0.13596 -0.216,-0.24723 -0.48,-0.24723 -0.264,0 -0.481,-0.108 -0.4822,-0.24 0,-0.132 -0.5022,-0.58051 -1.1133,-0.99667 -0.6112,-0.41616 -1.4091,-1.0151 -1.7733,-1.33094 -0.3642,-0.31584 -1.2242,-1.03242 -1.9112,-1.59239 -0.687,-0.55997 -1.5801,-1.2975 -1.9846,-1.63897 -0.4045,-0.34148 -1.2152,-1.01239 -1.8017,-1.49095 -3.7161,-3.03235 -13.431,-12.7704 -16.2026,-16.24112 -0.6978,-0.87392 -1.5749,-1.87696 -1.949,-2.22896 -0.3741,-0.352 -1.0991,-1.216 -1.6111,-1.92 -0.5121,-0.704 -1.3274,-1.712 -1.8119,-2.24 -0.4844,-0.528 -0.9621,-1.212 -1.0615,-1.52 -0.099,-0.308 -0.315,-0.56 -0.4792,-0.56 -0.1641,0 -0.2984,-0.15027 -0.2984,-0.33395 0,-0.18368 -0.36,-0.72221 -0.8,-1.19673 -0.44,-0.47453 -0.8,-1.04426 -0.8,-1.26605 0,-0.22179 -0.108,-0.40451 -0.24,-0.40605 -0.132,0 -0.8143,-0.90157 -1.5162,-2 -0.7019,-1.09846 -1.3859,-2.04522 -1.52,-2.10387 -0.1341,-0.0587 -0.2438,-0.24666 -0.2438,-0.41773 0,-0.17107 -0.7086,-1.41907 -1.5746,-2.77331 -0.8661,-1.35427 -1.7631,-2.89431 -1.9935,-3.42231 -0.2304,-0.528 -0.4952,-1.032 -0.5885,-1.12 -0.093,-0.088 -0.4562,-0.736 -0.8065,-1.44 -0.3503,-0.704 -0.709,-1.352 -0.7971,-1.44 -0.3242,-0.32377 -2.5598,-5.03052 -2.5598,-5.38921 0,-0.20394 -0.144,-0.37079 -0.32,-0.37079 -0.176,0 -0.32,-0.19158 -0.32,-0.42576 0,-0.23417 -0.3594,-1.13417 -0.7987,-2 -0.4392,-0.86582 -0.7992,-1.82624 -0.8,-2.13424 -7e-4,-0.308 -0.1453,-0.56 -0.3213,-0.56 -0.176,0 -0.32,-0.19388 -0.32,-0.43084 0,-0.40132 -0.6058,-1.87533 -1.3006,-3.1648 -0.1647,-0.30563 -0.2994,-0.83712 -0.2994,-1.18112 0,-0.344 -0.144,-0.71447 -0.32,-0.82323 -0.176,-0.10877 -0.32,-0.47728 -0.32,-0.81888 0,-0.34164 -0.108,-0.62234 -0.24,-0.62384 -0.132,0 -0.5025,-0.90154 -0.8233,-2 -0.3208,-1.0985 -0.7168,-2.24733 -0.88,-2.55293 -0.1632,-0.30563 -0.2967,-0.82163 -0.2967,-1.14669 0,-0.32506 -0.093,-0.68416 -0.2071,-0.79805 -0.347,-0.34701 -1.3713,-3.53283 -1.3825,-4.29961 -0.01,-0.396 -0.1544,-0.72 -0.3304,-0.72 -0.176,0 -0.32,-0.432 -0.32,-0.96 0,-0.528 -0.144,-0.96 -0.32,-0.96 -0.176,0 -0.3188,-0.252 -0.3173,-0.56 0,-0.65661 -0.9381,-4.75082 -1.3058,-5.68 -0.1393,-0.352 -0.325,-1.072 -0.4125,-1.6 -0.088,-0.528 -0.3942,-1.896 -0.6813,-3.04 -0.2871,-1.144 -0.603,-2.836 -0.7022,-3.76 -0.099,-0.924 -0.3063,-1.68 -0.4605,-1.68 -0.1543,0 -0.2804,-0.63949 -0.2804,-1.42112 0,-0.7816 -0.144,-1.51012 -0.32,-1.61888 -0.176,-0.10877 -0.3263,-0.80128 -0.334,-1.53888 -0.01,-0.73763 -0.1552,-1.98912 -0.3279,-2.78112 -0.1727,-0.792 -0.4513,-2.592 -0.619,-4 -0.1678,-1.408 -0.383,-3.208 -0.4781,-4 -1.6246,-13.52064 -2.5351,-29.12464 -2.908,-49.84 -0.1,-5.5407 -0.2919,-9.36 -0.4708,-9.36 -0.1888,0 -0.3022,-30.67245 -0.3022,-81.76 0,-52.63447 0.1106,-81.75999 0.3105,-81.75999 0.1902,0 0.3662,-3.56532 0.4542,-9.2 0.2742,-17.56453 1.2121,-35.51784 2.3949,-45.84 0.935,-8.15994 1.2551,-10.62294 1.6174,-12.44367 0.1886,-0.94803 0.343,-2.27153 0.343,-2.94112 0,-0.66959 0.144,-1.30643 0.32,-1.41521 0.176,-0.10877 0.32,-0.83727 0.32,-1.61888 0,-0.78162 0.144,-1.42112 0.32,-1.42112 0.176,0 0.32,-0.5022 0.32,-1.116 0,-0.6138 0.36,-2.50156 0.8,-4.19503 0.44,-1.69347 0.8,-3.42327 0.8,-3.844 0,-0.42073 0.144,-0.76497 0.32,-0.76497 0.176,0 0.32,-0.40911 0.32,-0.90914 0,-0.50003 0.2144,-1.61603 0.4765,-2.48 0.2621,-0.86397 0.4781,-1.89486 0.48,-2.29086 0,-0.396 0.1475,-0.72 0.3235,-0.72 0.176,0 0.32,-0.432 0.32,-0.96 0,-0.528 0.144,-0.96 0.32,-0.96 0.176,0 0.3247,-0.324 0.3304,-0.72 0.011,-0.76678 1.0355,-3.95261 1.3825,-4.29962 0.1139,-0.11387 0.2071,-0.53455 0.2071,-0.93482 0,-0.40028 0.1106,-0.79615 0.2458,-0.8797 0.1352,-0.0836 0.5252,-1.17205 0.8668,-2.41889 0.3415,-1.24683 0.7349,-2.26697 0.8742,-2.26697 0.1392,0 0.2532,-0.2795 0.2532,-0.62111 0,-0.34161 0.144,-0.710111 0.32,-0.818885 0.176,-0.108775 0.32,-0.450323 0.32,-0.758995 0,-0.308676 0.36,-1.307472 0.8,-2.219546 0.44,-0.912077 0.8,-1.875027 0.8,-2.139891 0,-0.264861 0.144,-0.481568 0.32,-0.481568 0.176,0 0.32,-0.215965 0.32,-0.47992 0,-0.263955 0.864,-2.291728 1.92,-4.50616 1.056,-2.214432 1.92,-4.158467 1.92,-4.320079 0,-0.161613 0.144,-0.29384 0.32,-0.29384 0.176,0 0.32,-0.276 0.32,-0.613335 0,-0.337331 0.108,-0.661331 0.24,-0.72 0.132,-0.05866 0.5266,-0.682665 0.8769,-1.386665 0.3503,-0.704 0.7103,-1.352 0.8,-1.44 0.09,-0.088 0.59,-0.988 1.1119,-2 0.5218,-1.012 1.0618,-1.84 1.2,-1.84 0.1381,0 0.2512,-0.150109 0.2512,-0.333571 0,-0.421085 4.2842,-7.163046 5.1259,-8.066464 0.3447,-0.370032 0.7101,-0.935401 0.812,-1.256377 0.1019,-0.320973 0.3195,-0.583587 0.4836,-0.583587 0.1642,0 0.2985,-0.154285 0.2985,-0.342858 0,-0.18857 0.18,-0.537008 0.4,-0.774307 0.22,-0.237296 0.688,-0.806618 1.04,-1.265155 0.352,-0.458541 0.784,-1.010103 0.96,-1.225693 0.176,-0.215594 0.7493,-0.967987 1.2741,-1.671987 0.5248,-0.704 1.251,-1.568 1.6137,-1.92 0.3627,-0.352 1.2294,-1.354749 1.9258,-2.22833 2.7386,-3.434908 12.7352,-13.438396 16.3204,-16.331669 0.6543,-0.528 1.8602,-1.536 2.6797,-2.24 0.8196,-0.704 1.9677,-1.64 2.5514,-2.08 0.5837,-0.44 1.4424,-1.121763 1.9081,-1.51503 0.4657,-0.393267 1.0207,-0.861267 1.2333,-1.04 0.2125,-0.178733 0.5365,-0.32497 0.72,-0.32497 0.1834,0 0.3335,-0.111254 0.3335,-0.247232 0,-0.135974 0.4973,-0.515059 1.1052,-0.842409 0.6078,-0.32735 1.3697,-0.841629 1.693,-1.142842 0.8355,-0.778374 6.7125,-4.487516 7.1103,-4.487516 0.1823,0 0.3315,-0.127205 0.3315,-0.282678 0,-0.155473 0.252,-0.368644 0.56,-0.473714 0.308,-0.105069 1.424,-0.704393 2.48,-1.33183 1.056,-0.627438 2.316,-1.309837 2.8,-1.516443 0.484,-0.206606 0.88,-0.488077 0.88,-0.625491 0,-0.137414 0.288,-0.249844 0.64,-0.249844 0.352,0 0.64,-0.144 0.64,-0.32 0,-0.176 0.1651,-0.32 0.3669,-0.32 0.2019,0 2.1363,-0.864 4.2987,-1.92 2.1625,-1.056 4.1574,-1.92 4.4331,-1.92 0.2757,0 0.5013,-0.144 0.5013,-0.32 0,-0.176 0.2111,-0.32 0.4691,-0.32 0.258,0 1.014,-0.23596 1.68,-0.524355 0.666,-0.288395 1.5709,-0.665196 2.0109,-0.837335 0.44,-0.172139 1.05,-0.440179 1.3556,-0.595645 0.3056,-0.155465 0.7736,-0.282665 1.04,-0.282665 0.2664,0 0.4844,-0.109798 0.4844,-0.243996 0,-0.134198 0.972,-0.519343 2.16,-0.855877 1.188,-0.336534 2.376,-0.716384 2.64,-0.844111 0.264,-0.127726 1.344,-0.492158 2.4,-0.809848 1.056,-0.31769 2.0568,-0.692042 2.224,-0.831893 0.1672,-0.139851 0.7072,-0.254275 1.2,-0.254275 0.4928,0 0.896,-0.144 0.896,-0.32 0,-0.176 0.432,-0.32 0.96,-0.32 0.528,0 0.96,-0.144 0.96,-0.3199995 0,-0.176 0.3003,-0.32 0.6674,-0.32 0.7277,0 4.5438,-0.8910899 5.5726,-1.3012297 0.352,-0.1403379 1.072,-0.3217216 1.6,-0.4030752 2.0857,-0.3213731 4.8286,-0.9417945 5.3556,-1.2114159 0.3056,-0.1563536 1.1336,-0.284279 1.84,-0.284279 0.7064,0 1.2844,-0.144 1.2844,-0.32 0,-0.176 0.6395,-0.32 1.4211,-0.32 0.7816,0 1.5101,-0.144 1.6189,-0.32 0.1087,-0.176 0.7456,-0.32 1.4152,-0.32 0.6696,0 1.9931,-0.1543315 2.9411,-0.3429587 1.8137,-0.3608656 4.8299,-0.7457878 9.8837,-1.2613052 1.672,-0.1705565 4.0944,-0.4553701 5.3831,-0.6329193 1.2888,-0.1775491 3.528,-0.3228166 4.976,-0.3228166 1.4481,0 2.7697,-0.1348269 2.9369,-0.2996152 0.1672,-0.1647884 2.752,-0.3836471 5.744,-0.4863527 2.992,-0.1027057 8.536,-0.3253623 12.32,-0.4947925 3.784,-0.1694302 10.876,-0.39273177 15.76,-0.49622572 5.1222,-0.10854329 8.88,-0.31402952 8.88,-0.48559229 C 204.16,0.11495545 236.3173,0 287.35996,0 c 49.61411,0 83.2,0.11725532 83.2,0.29046839 0,0.16230768 3.98864,0.38012815 9.04,0.49367675 4.972,0.11176457 12.064,0.33861706 15.76,0.50411656 3.696,0.1654995 9.204,0.3848272 12.24,0.4873948 3.07417,0.1038572 5.52,0.318937 5.52,0.4854149 0,0.1644106 1.28557,0.2989285 2.85683,0.2989285 1.57126,0 3.91126,0.1452675 5.2,0.3228166 1.28874,0.1775492 3.71117,0.4623628 5.38317,0.6329193 5.05373,0.5155174 8.07001,0.9004396 9.88368,1.2613052 0.94803,0.1886272 2.27152,0.3429587 2.94112,0.3429587 0.66957,0 1.30643,0.144 1.4152,0.32 0.10876,0.176 0.83728,0.32 1.61888,0.32 0.78163,0 1.42112,0.1301021 1.42112,0.2891158 0,0.1590135 0.684,0.3572554 1.52,0.440537 0.836,0.083282 2.528,0.4004598 3.76,0.7048399 1.232,0.3043798 2.672,0.6199507 3.2,0.7012678 0.528,0.081317 1.248,0.2618247 1.6,0.4011267 0.92918,0.3677174 5.02339,1.3089507 5.68,1.3058 0.308,-0.00147 0.56,0.1413126 0.56,0.3173126 0,0.1759995 0.432,0.3199995 0.96,0.3199995 0.528,0 0.96,0.128246 0.96,0.284991 0,0.156744 0.468,0.351927 1.04,0.433738 0.88864,0.127099 3.56515,0.977958 5.84,1.856525 0.352,0.135945 1.53878,0.512127 2.63728,0.83596 1.09846,0.323832 1.99846,0.696786 2,0.828786 0,0.132 0.26192,0.24 0.57872,0.24 0.3168,0 0.7128,0.114948 0.88,0.255439 0.1672,0.140491 1.096,0.520606 2.064,0.8447 0.968,0.324093 1.89679,0.713146 2.06399,0.864561 0.1672,0.151415 0.5632,0.2753 0.88,0.2753 0.3168,0 0.576,0.144 0.576,0.32 0,0.176 0.252,0.320603 0.56,0.321339 0.308,7.36e-4 1.26842,0.360737 2.13424,0.8 0.86583,0.439264 1.76583,0.798661 2,0.798661 0.23418,0 0.42576,0.144 0.42576,0.32 0,0.176 0.21885,0.32 0.48637,0.32 0.26749,0 1.05664,0.36 1.75363,0.8 0.697,0.44 1.4161,0.8 1.59799,0.8 0.32182,0 1.60086,0.638837 1.92201,0.96 0.1609,0.160893 3.69965,2.054847 5.03751,2.696095 0.39462,0.189148 0.71862,0.451905 0.72,0.583905 0,0.132 0.14371,0.24 0.31629,0.24 0.17257,0 1.10166,0.504 2.0646,1.12 0.96298,0.616 1.90176,1.12 2.08624,1.12 0.18445,0 0.33821,0.108 0.3417,0.24 0.004,0.132 0.72352,0.665761 1.6,1.186136 0.87651,0.520375 1.59366,1.060375 1.59366,1.2 0,0.139625 0.14349,0.253863 0.31885,0.253863 0.17536,0 1.31488,0.710722 2.53226,1.579383 2.09843,1.49734 2.66544,1.937452 4.29584,3.33446 0.38118,0.326615 1.26905,0.997827 1.97305,1.491581 0.704,0.493754 1.50407,1.162525 1.77789,1.486154 0.27386,0.323632 0.89952,0.876422 1.39037,1.228422 3.45875,2.480339 16.75302,16.092821 19.9543,20.431909 1.26016,1.708064 2.13315,2.825453 2.88352,3.690771 0.39933,0.460525 1.98333,2.709319 3.52,4.997318 1.53664,2.288 2.90954,4.304 3.05085,4.48 0.64582,0.804432 3.42307,5.801613 3.42307,6.159264 0,0.220406 0.144,0.400736 0.32,0.400736 0.176,0 0.32,0.146861 0.32,0.326358 0,0.179498 0.36,0.896637 0.8,1.593642 0.44,0.697004 0.8,1.474144 0.8,1.726972 0,0.252832 0.108,0.507693 0.24,0.566362 0.47507,0.211139 4.24,8.269705 4.24,9.075414 0,0.259187 0.144,0.471251 0.32,0.471251 0.176,0 0.32,0.205485 0.32,0.45663 0,0.251146 0.504,1.547757 1.12,2.881354 0.616,1.333597 1.12,2.712111 1.12,3.063371 0,0.35125 0.11392,0.63864 0.25318,0.63864 0.13927,0 0.53264,1.02014 0.87421,2.26697 0.34154,1.24684 0.73162,2.33534 0.86682,2.41889 0.13517,0.0835 0.24579,0.43337 0.24579,0.77737 0,0.344 0.13859,0.8755 0.30797,1.18112 0.59165,1.06741 1.93203,5.24027 1.93203,6.01473 0,0.42951 0.144,0.78092 0.32,0.78092 0.176,0 0.31878,0.252 0.31731,0.56 -0.004,0.76286 0.97613,4.90772 1.32272,5.59566 0.15399,0.30561 0.27997,0.98961 0.27997,1.52 0,0.53039 0.144,0.96434 0.32,0.96434 0.176,0 0.32,0.34724 0.32,0.77163 0,0.4244 0.36,2.29521 0.8,4.15737 0.44,1.86216 0.8,3.88242 0.8,4.48948 0,0.60707 0.144,1.19275 0.32,1.30152 0.176,0.10878 0.32003,0.72928 0.32006,1.37889 4e-5,0.64961 0.21604,2.30978 0.48,3.68926 0.26397,1.37948 0.47994,3.13499 0.47994,3.90112 0,0.76613 0.144,1.48196 0.32,1.59073 0.176,0.10878 0.32,1.26078 0.32,2.56 0,1.29923 0.144,2.45123 0.32,2.56 0.176,0.10878 0.32118,1.08928 0.32262,2.17889 0,1.08961 0.14836,3.25295 0.32644,4.80742 0.71404,6.23253 1.53529,24.54936 1.78508,39.81369 0.0923,5.6419 0.27485,9.36 0.45952,9.36 0.19431,0 0.30634,29.83782 0.30634,81.59999 0,51.76218 -0.11203,81.6 -0.30634,81.6 -0.1847,0 -0.36662,3.71709 -0.45808,9.36 -0.24976,15.4071 -1.0632,33.50157 -1.79203,39.86221 -0.17507,1.5278 -0.31949,3.66928 -0.32093,4.75891 0,1.0896 -0.14662,2.07011 -0.32262,2.17888 -0.176,0.10877 -0.32,1.26077 -0.32,2.56 0,1.29923 -0.144,2.45123 -0.32,2.56 -0.176,0.10877 -0.32506,0.94528 -0.33123,1.85888 -0.006,0.91363 -0.21712,2.59712 -0.46877,3.74112 -0.25165,1.144 -0.46256,2.68349 -0.46877,3.42112 -0.006,0.7376 -0.15523,1.43011 -0.33123,1.53888 -0.176,0.10876 -0.32,0.69446 -0.32,1.3015 0,0.60707 -0.36,2.62736 -0.8,4.4895 -0.44,1.86215 -0.8,3.72448 -0.8,4.13847 0,0.41401 -0.144,0.84176 -0.32,0.95053 -0.176,0.10876 -0.32,0.55123 -0.32,0.98323 0,0.432 -0.12598,1.03549 -0.27997,1.34112 -0.34659,0.68793 -1.32637,4.8328 -1.32272,5.59565 0,0.308 -0.14131,0.56 -0.31731,0.56 -0.176,0 -0.32,0.35142 -0.32,0.78092 0,0.77447 -1.34038,4.94733 -1.93203,6.01472 -0.16938,0.30564 -0.30797,0.77559 -0.30797,1.04436 0,0.26876 -0.13354,0.73872 -0.29674,1.04435 -0.16323,0.3056 -0.55923,1.45443 -0.88,2.55293 -0.3208,1.09846 -0.69126,1.99846 -0.82326,2 -0.132,0 -0.24,0.27878 -0.24,0.61619 0,0.55632 -0.31731,1.3999 -1.81526,4.82588 -0.26951,0.61636 -0.60743,1.40864 -0.75098,1.76064 -2.19555,5.38429 -8.97984,18.39968 -10.54304,20.2265 -0.18189,0.21258 -0.33072,0.52458 -0.33072,0.69334 0,0.16874 -0.108,0.35482 -0.24,0.41351 -0.132,0.0587 -1.35625,1.77177 -2.72054,3.80691 -1.36432,2.03514 -2.73232,3.9792 -3.04,4.32016 -0.30771,0.34093 -1.06346,1.31203 -1.67946,2.15802 -0.616,0.84595 -1.768,2.26784 -2.56,3.15974 -0.792,0.89187 -1.656,1.90352 -1.92,2.24803 -1.81517,2.36886 -11.39168,12.13398 -14.52765,14.81379 -1.66553,1.42327 -2.7487,2.37485 -4.46207,3.92 -0.63428,0.572 -1.24605,1.04 -1.35949,1.04 -0.11347,0 -0.66832,0.396 -1.23299,0.88 -1.94247,1.66493 -3.4738,2.8056 -6.86167,5.11133 -1.86787,1.27123 -3.57005,2.45923 -3.78262,2.64 -0.21258,0.18077 -0.53658,0.32867 -0.72,0.32867 -0.18343,0 -0.33351,0.1272 -0.33351,0.28269 0,0.15546 -0.252,0.36221 -0.56,0.45942 -0.56806,0.17933 -2.98678,1.52212 -3.28,1.82096 -0.088,0.0897 -0.736,0.44967 -1.44,0.8 -0.704,0.35031 -1.352,0.70893 -1.44,0.79693 -0.21843,0.21843 -1.88096,1.13287 -3.56576,1.96125 -0.76681,0.37706 -1.89824,0.96045 -2.51424,1.29645 -0.616,0.33597 -1.552,0.80822 -2.08,1.04941 -3.47363,1.58681 -4.71382,2.09289 -5.12873,2.09289 -0.2592,0 -0.47127,0.144 -0.47127,0.32 0,0.176 -0.21206,0.32 -0.47126,0.32 -0.41789,0 -3.21817,1.15427 -4.72438,1.94742 -0.30563,0.1609 -0.84563,0.29258 -1.2,0.29258 -0.3544,0 -0.64557,0.108 -0.64707,0.24 0,0.132 -0.90154,0.50496 -2,0.8288 -1.0985,0.32381 -2.28528,0.69862 -2.63728,0.8329 -1.77773,0.67811 -3.98119,1.42291 -5.18448,1.75244 -0.73949,0.2025 -1.44749,0.47117 -1.57335,0.59703 -0.12585,0.12585 -0.63683,0.22883 -1.13552,0.22883 -0.49865,0 -0.90665,0.144 -0.90665,0.32 0,0.176 -0.30036,0.32 -0.66749,0.32 -0.8329,0 -4.73949,0.93824 -5.48816,1.31808 -0.30563,0.15507 -0.84759,0.28192 -1.20435,0.28192 -0.35677,0 -0.89872,0.12794 -1.20436,0.28429 -0.65747,0.33635 -3.76956,0.98 -5.92233,1.2248 -0.83965,0.0955 -1.60416,0.29901 -1.69888,0.45225 -0.0947,0.15328 -0.78771,0.27866 -1.54,0.27866 -0.75226,0 -1.4752,0.108 -1.60653,0.24 -0.27971,0.28115 -4.72102,0.94624 -8.2679,1.23814 -1.364,0.11226 -2.48,0.3296 -2.48,0.48298 0,0.15338 -0.88979,0.27888 -1.97728,0.27888 -1.08752,0 -2.41952,0.13565 -2.96,0.30144 -2.37463,0.72838 -27.65235,2.05648 -46.34272,2.43488 -5.57789,0.11293 -9.84,0.32579 -9.84,0.49146 0,0.17555 -32.58249,0.29222 -81.6,0.29222 -48.21676,0 -81.59996,-0.11798 -81.59996,-0.28835 z M 375.67996,522.608 c 31.32665,-0.96038 48.78435,-2.29772 58.96,-4.51657 5.76358,-1.2568 7.74908,-1.73027 10.96,-2.61363 1.73555,-0.47747 7.84617,-2.47859 8.64,-2.82941 0.352,-0.15558 1.49443,-0.58899 2.53868,-0.9631 1.04429,-0.37415 2.66858,-1.03239 3.60951,-1.46279 0.94093,-0.4304 1.77571,-0.78253 1.8551,-0.78253 0.37863,0 6.02061,-2.82198 8.10314,-4.05299 1.29056,-0.76285 2.47856,-1.38701 2.64,-1.38701 0.16147,0 0.29357,-0.10883 0.29357,-0.24188 0,-0.13303 0.396,-0.41719 0.88,-0.63146 0.484,-0.21427 1.24,-0.67139 1.68,-1.01584 0.44,-0.34442 2.024,-1.52218 3.51999,-2.61722 6.26215,-4.58374 14.70135,-12.93379 19.54007,-19.3336 1.8208,-2.40825 4.45993,-6.15177 4.45993,-6.32627 0,-0.0724 0.73178,-1.34256 1.62615,-2.82265 1.38781,-2.29671 4.45385,-8.33437 4.45385,-8.77056 0,-0.0779 0.35213,-0.91139 0.78253,-1.85232 0.4304,-0.94093 1.08864,-2.56522 1.46279,-3.60951 0.37411,-1.04425 0.8103,-2.18668 0.96924,-2.53868 0.35959,-0.79623 2.19696,-6.32669 2.60464,-7.84 0.64535,-2.39533 1.27303,-5.00269 1.42519,-5.92 0.0876,-0.528 0.28192,-1.248 0.4319,-1.6 0.14998,-0.352 0.35504,-1.144 0.45571,-1.76 0.10067,-0.616 0.32986,-1.768 0.50935,-2.56 1.75961,-7.76515 2.93305,-20.27293 3.85776,-41.12 0.93552,-21.09085 1.07612,-34.95149 1.07612,-106.08 0,-71.1285 -0.1406,-84.98915 -1.07612,-106.07999 -0.91309,-20.58554 -2.10439,-33.27056 -3.8617,-41.12 -0.17731,-0.792 -0.40474,-1.944 -0.50541,-2.56 -0.10067,-0.616 -0.30573,-1.408 -0.45571,-1.76 -0.14998,-0.352 -0.34432,-1.072 -0.4319,-1.6 -0.15389,-0.92769 -0.79994,-3.6074 -1.42723,-5.92 -0.39418,-1.45305 -2.24445,-7.01222 -2.60944,-7.84 -0.1552,-0.352 -0.58829,-1.49441 -0.9624,-2.5387 -0.37415,-1.04428 -1.04746,-2.70028 -1.49623,-3.68 -0.4488,-0.97971 -1.04608,-2.3573 -1.32733,-3.0613 -0.84291,-2.11014 -3.68867,-7.42727 -4.90752,-9.16939 -0.32681,-0.46717 -0.59424,-0.93354 -0.59424,-1.03638 0,-0.24148 -3.6166,-5.36594 -5.09907,-7.22498 -2.196,-2.753843 -2.43261,-3.035066 -4.02093,-4.778793 -4.21603,-4.628586 -10.6614,-10.703837 -13.28,-12.517382 -0.616,-0.426621 -1.40192,-1.034173 -1.74649,-1.350112 -0.34458,-0.315943 -1.56858,-1.18319 -2.72,-1.927222 -1.15142,-0.744029 -2.1415,-1.461447 -2.20016,-1.59426 -0.0587,-0.132809 -0.29869,-0.241475 -0.53334,-0.241475 -0.23466,0 -0.47466,-0.108 -0.53335,-0.24 -0.13344,-0.300262 -2.03741,-1.396768 -4.74665,-2.733635 -1.144,-0.564499 -2.152,-1.105555 -2.24,-1.202345 -0.181,-0.199056 -3.77376,-1.904019 -4.01223,-1.904019 -0.0851,0 -0.76518,-0.271463 -1.51126,-0.603248 -0.74608,-0.331786 -2.36451,-0.994157 -3.59651,-1.471936 -1.232,-0.477779 -2.456,-0.970397 -2.72,-1.094707 -0.264,-0.124314 -1.776,-0.631671 -3.36,-1.127466 -1.584,-0.495795 -3.168,-1.011302 -3.52,-1.145571 -0.7826,-0.298519 -2.5282,-0.77791 -5.28,-1.450054 -6.35901,-1.55322 -6.91405,-1.66433 -13.76,-2.754538 -11.21533,-1.786025 -25.42227,-2.686169 -55.36,-3.507577 C 353.19372,51.578183 220.725,51.565722 201.44,52.10874 c -34.5017,0.971504 -46.624,1.869248 -61.12,4.526358 -1.7959,0.329187 -2.4734,0.472854 -5.76,1.221433 -2.6305,0.599124 -6.3925,1.61145 -7.36,1.980525 -0.352,0.134269 -1.936,0.649776 -3.52,1.145571 -1.584,0.495795 -3.096,1.003152 -3.36,1.127466 -0.264,0.12431 -1.488,0.616518 -2.72,1.093795 -1.232,0.47728 -3,1.211651 -3.9288,1.631936 -0.9288,0.420288 -1.8152,0.76416 -1.9697,0.76416 -0.2894,0 -2.936,1.314496 -3.2215,1.6 -0.088,0.088 -1.096,0.621865 -2.24,1.186364 -2.7093,1.336868 -4.6132,2.433373 -4.7467,2.733635 -0.059,0.132 -0.2987,0.24 -0.5333,0.24 -0.2347,0 -0.4747,0.108 -0.5334,0.24 -0.059,0.132 -1.1665,0.950173 -2.4619,1.818167 -1.2955,0.86799 -2.5195,1.73199 -2.72,1.92 -0.2006,0.188006 -0.9407,0.77142 -1.6447,1.29647 -4.9636,3.701881 -13.2635,12.001791 -16.9654,16.965362 -0.525,0.704 -1.1085,1.444112 -1.2965,1.644691 -0.188,0.200583 -1.052,1.424583 -1.92,2.72 -0.868,1.295421 -1.6861,2.403307 -1.8181,2.461977 -0.132,0.0587 -0.24,0.25244 -0.24,0.4306 0,0.17817 -0.291,0.7326 -0.6467,1.23209 -0.3556,0.49948 -1.3451,2.24971 -2.1987,3.88939 -0.8536,1.63969 -1.8586,3.52563 -2.2333,4.19099 -0.3747,0.66535 -0.6813,1.34541 -0.6813,1.51125 0,0.16583 -0.3439,1.06145 -0.7642,1.99026 -0.4203,0.92882 -1.1546,2.69675 -1.6319,3.92875 -0.4773,1.232 -0.9695,2.456 -1.0938,2.72 -0.1243,0.264 -0.6317,1.776 -1.1275,3.36 -0.4958,1.584 -1.0113,3.168 -1.1456,3.52 -0.369,0.96757 -1.3814,4.72956 -1.9805,7.36 -3.5511,15.59113 -4.7146,29.28394 -5.7238,67.36 -0.5524,20.84315 -0.5721,153.17698 -0.026,171.67999 1.0106,34.21235 1.8914,46.24096 4.3815,59.83999 0.2901,1.584 0.5966,3.312 0.6812,3.84 0.085,0.528 0.2782,1.248 0.4302,1.6 0.152,0.352 0.3464,1.072 0.432,1.6 0.2872,1.77085 1.2959,5.70535 1.805,7.04 0.1343,0.352 0.6498,1.936 1.1456,3.52 0.4958,1.584 1.006,3.096 1.1338,3.36 0.1278,0.264 0.5539,1.344 0.9468,2.4 0.3929,1.056 1.0524,2.68026 1.4656,3.60948 0.4131,0.92921 0.7512,1.75328 0.7512,1.83126 0,0.25197 1.7216,3.83398 1.9222,3.99926 0.1067,0.088 0.3915,0.64759 0.6328,1.24349 0.2412,0.59594 1.1331,2.23891 1.9818,3.65107 0.8487,1.41219 1.5432,2.67661 1.5432,2.80986 0,0.13325 0.1086,0.29024 0.2414,0.34893 0.1329,0.0587 0.8503,1.04873 1.5943,2.20016 0.744,1.15142 1.6113,2.37542 1.9272,2.72 0.316,0.34457 0.9235,1.13049 1.3501,1.74649 2.3995,3.46461 9.8156,11.09757 15.2283,15.6736 0.5162,0.43651 2.1627,1.70791 3.6587,2.82535 1.496,1.1174 2.9423,2.20953 3.2141,2.42688 0.2718,0.21734 0.7038,0.49302 0.96,0.61263 0.6088,0.2842 1.7027,0.97325 1.9059,1.20052 0.4385,0.49056 9.7917,5.42102 10.2838,5.42102 0.1423,0 1.0906,0.37731 2.1074,0.83843 2.1989,0.99725 3.379,1.48627 4.8888,2.02586 0.616,0.22016 1.48,0.54902 1.92,0.73081 1.6983,0.70167 2.158,0.86244 4.64,1.62269 5.0706,1.55319 7.1022,2.06867 14.8,3.75523 10.7579,2.35706 28.7033,3.69316 59.7136,4.44586 6.8386,0.16602 12.5177,0.38582 12.6204,0.48848 0.3181,0.31814 151.91047,-0.0712 163.26595,-0.41933 z m -97.75999,-87.9117 c -8.67464,-0.79763 -9.86357,-0.94147 -14.39997,-1.74243 -0.88,-0.15536 -2.968,-0.51789 -4.64,-0.8056 -1.672,-0.28775 -3.472,-0.652 -4,-0.80948 -0.528,-0.15747 -2.544,-0.65984 -4.48,-1.11638 -1.936,-0.45658 -3.808,-0.94896 -4.16,-1.09427 -0.352,-0.14528 -1.504,-0.50608 -2.56,-0.80176 -2.0111,-0.56307 -3.405,-1.01447 -4.48,-1.45069 -0.352,-0.14282 -2.8,-1.07741 -5.44,-2.07686 -5.2588,-1.99085 -8.259,-3.29108 -10.56,-4.57642 -0.352,-0.19664 -1.504,-0.74941 -2.56,-1.22838 -1.056,-0.47898 -2.5862,-1.26231 -3.4003,-1.74074 -1.2912,-0.75875 -3.8471,-2.19501 -5.8797,-3.3041 -0.352,-0.19206 -0.712,-0.44044 -0.8,-0.55193 -0.088,-0.11152 -1.6,-1.10557 -3.36,-2.20903 -1.76,-1.10348 -3.272,-2.11024 -3.36,-2.23724 -0.088,-0.12704 -0.808,-0.645 -1.6,-1.15098 -2.1689,-1.38573 -5.3977,-3.82 -7.1626,-5.40003 -0.1966,-0.176 -0.9206,-0.74096 -1.6088,-1.25546 -3.3644,-2.5151 -12.0542,-10.86787 -15.9387,-15.32057 -1.1055,-1.2672 -2.0822,-2.37597 -2.1705,-2.46397 -0.3175,-0.31645 -2.0987,-2.4736 -3.0394,-3.68106 -0.528,-0.67769 -1.1131,-1.38668 -1.3003,-1.57555 -0.1871,-0.18886 -1.1205,-1.42339 -2.0741,-2.74339 -0.9536,-1.32 -1.8465,-2.544 -1.9842,-2.72 -0.1378,-0.176 -0.6038,-0.85952 -1.0356,-1.51894 -0.4318,-0.65943 -1.0611,-1.59543 -1.3983,-2.08 -1.5489,-2.22544 -4.391,-6.82291 -5.5766,-9.0209 -0.718,-1.3311 -1.6424,-2.99616 -2.0542,-3.70016 -0.4118,-0.704 -1.1881,-2.216 -1.725,-3.36 -0.537,-1.144 -1.3263,-2.79229 -1.754,-3.66281 -0.4278,-0.87056 -0.7777,-1.77056 -0.7777,-2 0,-0.22948 -0.144,-0.41719 -0.32,-0.41719 -0.176,0 -0.32,-0.2592 -0.32,-0.576 0,-0.3168 -0.1195,-0.7128 -0.2655,-0.88 -0.146,-0.1672 -0.7378,-1.6 -1.3152,-3.184 -1.3152,-3.60841 -1.4416,-3.94208 -1.9393,-5.12 -0.7229,-1.71088 -0.8896,-2.19683 -1.7563,-5.12 -0.4696,-1.584 -0.9807,-3.24 -1.1358,-3.68 -0.1551,-0.44 -0.3786,-1.376 -0.4967,-2.08 -0.1181,-0.704 -0.3218,-1.424 -0.4528,-1.6 -0.1309,-0.176 -0.3193,-0.752 -0.4185,-1.28 -0.099,-0.528 -0.3254,-1.536 -0.5025,-2.24 -0.2905,-1.1552 -1.1835,-5.70443 -1.9473,-9.92 -1.5071,-8.31874 -2.4309,-26.63691 -1.6461,-32.63999 0.1841,-1.408 0.4848,-4.432 0.6683,-6.72 0.3755,-4.68144 0.5309,-6.02422 0.9626,-8.32 0.1655,-0.88 0.5343,-2.968 0.8196,-4.64 0.2853,-1.672 0.6353,-3.4 0.7778,-3.84 0.1426,-0.44 0.4427,-1.664 0.6671,-2.72 0.2244,-1.056 0.509,-2.064 0.6326,-2.24 0.1235,-0.176 0.324,-0.896 0.4456,-1.6 0.1216,-0.704 0.3572,-1.712 0.5237,-2.24 0.1664,-0.528 0.6715,-2.184 1.1223,-3.68 0.4508,-1.496 0.9539,-3.044 1.118,-3.44 0.7132,-1.72101 0.9735,-2.39469 2.5658,-6.64 0.9242,-2.464 1.8001,-4.528 1.9465,-4.58667 0.1463,-0.0587 0.2661,-0.24725 0.2661,-0.41907 0,-0.17182 0.5609,-1.49182 1.2465,-2.93333 0.6855,-1.44151 1.4724,-3.12493 1.7484,-3.74093 0.2761,-0.616 0.8414,-1.696 1.2563,-2.4 0.4149,-0.704 1.3747,-2.432 2.133,-3.84 1.3591,-2.52339 7.7763,-12.39455 9.8816,-15.2 1.1682,-1.55686 2.8994,-3.73361 3.4142,-4.29309 0.176,-0.19127 0.8936,-1.06758 1.5947,-1.94734 3.457,-4.33801 11.1457,-12.2716 15.8453,-16.34991 0.792,-0.68731 1.656,-1.46725 1.92,-1.7332 0.264,-0.26594 1.056,-0.91152 1.76,-1.43463 1.2422,-0.92303 2.4302,-1.89085 3.1625,-2.57644 0.1966,-0.18404 1.8695,-1.4038 3.7175,-2.71058 1.848,-1.30679 3.432,-2.4561 3.52,-2.55403 0.338,-0.37619 8.8945,-5.7565 10.72,-6.7407 1.056,-0.56935 2.568,-1.39705 3.36,-1.83933 2.7316,-1.52545 9.0944,-4.54075 9.5816,-4.54075 0.1861,0 0.3384,-0.144 0.3384,-0.32 0,-0.176 0.2592,-0.32 0.576,-0.32 0.3168,0 0.7128,-0.11945 0.88,-0.26544 0.1672,-0.146 1.6,-0.73784 3.184,-1.3152 1.584,-0.57737 3.204,-1.17792 3.6,-1.33456 0.396,-0.15664 1.044,-0.40953 1.44,-0.56198 0.396,-0.15246 1.08,-0.42592 1.52,-0.60771 1.1961,-0.49417 2.5051,-0.92366 4.64,-1.52234 1.056,-0.29614 2.28,-0.65866 2.72,-0.8056 0.44,-0.14693 1.304,-0.36128 1.92,-0.47634 0.616,-0.11505 1.768,-0.42286 2.56,-0.68401 0.792,-0.26116 2.088,-0.61507 2.88,-0.78647 0.792,-0.1714 2.016,-0.44674 2.72,-0.61187 3.6857,-0.8645 10.093,-1.80158 15.19997,-2.22304 2.2,-0.18155 4.97467,-0.47305 6.16593,-0.64777 2.78893,-0.40904 16.20624,-0.41242 19.02813,-0.005 1.19126,0.17209 3.96593,0.46285 6.16593,0.64615 2.2,0.1833 4.864,0.46021 5.92,0.61536 5.63438,0.8278 9.26598,1.4867 10.72,1.94498 0.44,0.13867 1.664,0.43572 2.72,0.6601 1.056,0.22437 2.064,0.50901 2.24,0.63252 0.176,0.12351 0.896,0.32119 1.6,0.43929 0.704,0.1181 1.64,0.3381 2.08,0.48889 0.44,0.15079 1.664,0.51646 2.72,0.8126 2.13485,0.59869 3.44391,1.02818 4.64,1.52235 2.11619,0.8743 2.7064,1.09962 6.56,2.50424 1.584,0.57737 3.0168,1.16921 3.184,1.3152 0.1672,0.146 0.5632,0.26545 0.88,0.26545 0.3168,0 0.576,0.144 0.576,0.32 0,0.176 0.2024,0.32 0.44976,0.32 0.24736,0 1.00336,0.28122 1.68,0.62494 0.67664,0.34371 2.38224,1.18293 3.79024,1.86494 1.408,0.682 3.208,1.60321 4,2.04714 0.792,0.44393 2.40499,1.33138 3.58445,1.9721 2.74675,1.49216 9.92723,6.06464 10.7584,6.85088 0.23257,0.22 0.5463,0.4 0.69715,0.4 0.15085,0 0.46595,0.19167 0.70022,0.42594 0.23428,0.23427 1.46007,1.16384 2.724,2.06572 2.02733,1.4466 3.12359,2.30498 4.37834,3.42834 0.19661,0.176 0.93344,0.74459 1.63744,1.26354 0.704,0.51895 1.49622,1.16695 1.76054,1.44 0.26429,0.27305 1.51706,1.40093 2.78394,2.5064 5.01283,4.37413 12.5161,12.30095 16.57552,17.51112 0.528,0.67768 1.11123,1.38667 1.29606,1.57554 0.55242,0.56447 3.11671,4.07817 4.10397,5.6234 0.50598,0.792 1.02042,1.512 1.1431,1.6 0.29786,0.21362 5.47424,8.37613 6.5953,10.4 0.48746,0.88 1.22323,2.176 1.63507,2.88 0.41181,0.704 1.18506,2.216 1.71827,3.36 0.53322,1.144 1.10871,2.332 1.27885,2.64 0.76963,1.39313 0.9729,1.80319 1.86391,3.75999 0.52092,1.144 1.76486,4.24 2.76432,6.88 0.99945,2.64 1.94,5.088 2.09014,5.44 0.15014,0.352 0.65677,1.936 1.12582,3.52 0.46909,1.584 0.97092,3.168 1.1152,3.52 0.14426,0.352 0.63584,2.224 1.09242,4.16 0.45654,1.936 0.95891,3.952 1.11638,4.48 0.15748,0.528 0.52173,2.328 0.80948,4 0.28771,1.672 0.65206,3.76 0.80966,4.64 1.45286,8.11313 1.76211,12.30119 1.76038,23.84 0,10.48557 -0.22249,14.34718 -1.15337,20.16 -1.09901,6.86277 -1.78083,10.64604 -2.19152,12.16 -0.16707,0.616 -0.67936,2.704 -1.1384,4.64 -0.45901,1.936 -0.95527,3.808 -1.10282,4.16 -0.14752,0.352 -0.51014,1.504 -0.80582,2.56 -0.56938,2.0335 -1.02247,3.4297 -1.45386,4.48 -0.14454,0.352 -0.50755,1.36 -0.80665,2.24 -0.29911,0.88 -0.74759,2.06493 -0.99661,2.63315 -0.24906,0.56823 -0.81863,2.00822 -1.26573,3.2 -1.18461,3.1575 -4.95277,11.13888 -6.55635,13.8871 -0.47504,0.81415 -1.33354,2.32615 -1.90775,3.36 -0.5742,1.03386 -1.32515,2.38375 -1.66883,2.99975 -0.34365,0.616 -0.73104,1.192 -0.86086,1.28 -0.12983,0.088 -0.9753,1.35645 -1.87885,2.81878 -0.90352,1.46234 -1.86061,2.87664 -2.12685,3.14288 -0.26624,0.26621 -0.48406,0.59575 -0.48406,0.73223 0,0.13651 -0.27655,0.56704 -0.61453,0.95673 -0.33798,0.3897 -1.16598,1.52448 -1.84,2.52173 -0.67402,0.99725 -1.51347,2.11286 -1.86547,2.47914 -0.352,0.36627 -1.072,1.22252 -1.6,1.90278 -0.93072,1.19907 -2.71322,3.36057 -3.03946,3.68573 -0.0883,0.088 -1.09654,1.2366 -2.24054,2.55241 -2.53821,2.91946 -8.26646,8.63619 -11.33568,11.31287 -1.24538,1.08608 -2.33632,2.04697 -2.42432,2.13526 -0.32515,0.32624 -2.48666,2.10874 -3.68573,3.03946 -0.68025,0.528 -1.53325,1.24947 -1.89555,1.60326 -0.3623,0.35379 -1.37872,1.10554 -2.25872,1.67056 -0.88,0.56502 -2.0184,1.39155 -2.52976,1.83674 -0.51139,0.44518 -1.04109,0.80944 -1.17715,0.80944 -0.13607,0 -0.44346,0.19609 -0.68314,0.43574 -0.23965,0.23968 -1.65392,1.19648 -3.14285,2.12627 -1.48889,0.92979 -2.7791,1.79703 -2.8671,1.92717 -0.15712,0.23235 -0.45398,0.40762 -4.32,2.5505 -1.056,0.58531 -2.496,1.40089 -3.2,1.81238 -1.79174,1.04729 -8.95491,4.50576 -12.32,5.94825 -0.616,0.26407 -2.92,1.15994 -5.12,1.99082 -2.2,0.83088 -4.288,1.62624 -4.64,1.76749 -1.10019,0.44144 -2.48998,0.89056 -4.48,1.44777 -1.056,0.29568 -2.208,0.65831 -2.56,0.80583 -0.352,0.14755 -2.224,0.64381 -4.16,1.10281 -1.936,0.45904 -4.024,0.9656 -4.64,1.12573 -1.77404,0.46115 -4.13657,0.93296 -6.56,1.31011 -1.232,0.19172 -2.96,0.46448 -3.84,0.60612 -6.48668,1.04396 -10.53788,1.33411 -20,1.43235 -5.54399,0.0576 -10.65599,0.0517 -11.35999,-0.0131 z m 19.90131,-51.97382 c 6.1321,-0.72679 9.41253,-1.29786 12.57868,-2.1897 0.616,-0.17354 2.272,-0.62394 3.68,-1.00093 2.9315,-0.78489 6.7009,-2.06019 8.8,-2.97725 0.792,-0.34598 1.872,-0.81497 2.4,-1.04217 0.528,-0.2272 2.08653,-0.93047 3.46336,-1.56279 1.37687,-0.63232 2.57863,-1.14966 2.67063,-1.14966 0.092,0 0.55353,-0.27507 1.02572,-0.6113 0.47216,-0.33622 1.5024,-0.96025 2.28938,-1.38675 2.77664,-1.50467 4.63274,-2.58112 4.79091,-2.77849 0.088,-0.10976 1.23565,-0.91597 2.55031,-1.79152 2.10294,-1.40055 5.61414,-4.12208 8.45907,-6.55664 4.90441,-4.19696 12.49901,-12.72285 15.66492,-17.58583 0.86276,-1.32521 1.67242,-2.48147 1.7993,-2.56947 0.12685,-0.088 0.70771,-1.024 1.29082,-2.08 2.02963,-3.67587 2.31414,-4.16512 2.91305,-5.00941 0.33139,-0.46716 0.60253,-0.92464 0.60253,-1.0166 0,-0.092 0.51734,-1.29376 1.14966,-2.67063 0.63232,-1.37683 1.33559,-2.93536 1.56279,-3.46336 0.2272,-0.528 0.69581,-1.608 1.04141,-2.4 0.34556,-0.792 0.88598,-2.232 1.20092,-3.2 0.31498,-0.968 0.69306,-2.048 0.8402,-2.4 0.14713,-0.352 0.57235,-1.792 0.94492,-3.2 0.37258,-1.408 0.81936,-3.064 0.9929,-3.68 1.50333,-5.337 2.83085,-16.14146 2.83085,-23.04 0,-6.84894 -1.34176,-17.76564 -2.83178,-23.03999 -0.17405,-0.616 -0.54131,-1.912 -0.81619,-2.88 -0.27491,-0.968 -0.58739,-2.12 -0.69446,-2.56 -0.10704,-0.44 -0.30695,-1.088 -0.4442,-1.44 -0.13728,-0.352 -0.50726,-1.432 -0.82224,-2.4 -0.31494,-0.968 -0.85296,-2.408 -1.19558,-3.2 -0.34266,-0.792 -0.74445,-1.728 -0.8929,-2.08 -0.65827,-1.56085 -3.88854,-8.12006 -4.5702,-9.28 -0.4137,-0.704 -1.22912,-2.144 -1.812,-3.2 -0.58292,-1.056 -1.15552,-1.992 -1.27245,-2.08 -0.11693,-0.088 -1.20976,-1.5979 -2.42851,-3.35532 -1.21876,-1.75743 -2.79354,-3.87444 -3.49952,-4.70446 -0.70599,-0.83003 -1.67459,-1.98414 -2.15242,-2.56468 -1.13667,-1.38094 -5.67046,-6.01891 -8.09625,-8.28226 -6.71028,-6.26095 -17.33028,-13.13203 -26.0898,-16.87997 -0.95983,-0.41069 -2.03315,-0.87281 -2.38515,-1.02694 -1.96073,-0.85857 -4.80756,-1.90637 -5.17951,-1.90637 -0.23604,0 -0.67922,-0.14283 -0.98483,-0.31741 -0.30561,-0.17457 -1.70766,-0.62088 -3.11566,-0.99182 -2.49484,-0.65725 -3.2641,-0.85069 -6.24,-1.56918 -1.93425,-0.46699 -8.34393,-1.4332 -12.48,-1.88124 -7.85129,-0.85052 -20.68346,-0.003 -28.47996,1.88094 -3.1056,0.75043 -3.7408,0.91533 -5.44,1.4122 -0.968,0.28306 -2.2315,0.60422 -2.8078,0.71371 -0.5763,0.10948 -1.1248,0.32365 -1.2189,0.47593 -0.094,0.15228 -0.4033,0.27687 -0.6871,0.27687 -0.4434,0 -3.2902,1.01336 -5.3662,1.91014 -0.352,0.15206 -1.4254,0.61248 -2.3852,1.02317 -1.9672,0.84171 -6.7244,3.22728 -9.1348,4.5808 -2.8735,1.61351 -10.5157,6.79006 -12.48,8.45349 -4.8403,4.09877 -10.1184,9.19784 -12.4179,11.99652 -0.5622,0.68427 -1.7031,2.03518 -2.5353,3.00202 -1.5841,1.84023 -6.8851,9.64419 -8.4187,12.39386 -1.3806,2.47519 -3.7477,7.20179 -4.5748,9.13486 -0.4107,0.95982 -0.8711,2.03314 -1.0232,2.38514 -0.8968,2.07599 -1.9101,4.92284 -1.9101,5.36622 0,0.2838 -0.1246,0.59301 -0.2769,0.68712 -0.1523,0.0941 -0.3665,0.64261 -0.4759,1.21889 -0.1095,0.57627 -0.4269,1.83977 -0.7054,2.80777 -0.2785,0.968 -0.7181,2.624 -0.9769,3.68 -0.2589,1.056 -0.599,2.424 -0.7558,3.04 -0.1568,0.616 -0.439,2.128 -0.627,3.36 -1.9475,12.76132 -1.6369,24.80464 0.9409,36.47999 0.1554,0.704 0.3732,1.712 0.4839,2.24 0.1107,0.528 0.3209,1.248 0.4672,1.6 0.1462,0.352 0.5075,1.576 0.8028,2.72 1.2354,4.78558 2.7247,8.58141 5.964,15.2 1.7336,3.54221 3.7737,7.28381 4.5277,8.30371 0.8276,1.11952 3.7867,5.53338 3.9704,5.9224 0.1211,0.25639 0.4658,0.76039 0.766,1.12 0.3002,0.35965 1.6187,1.94989 2.93,3.53389 5.025,6.07002 11.6148,12.19869 17.8119,16.56541 1.6902,1.19097 3.3004,2.34297 3.5784,2.56 0.7438,0.58086 1.6496,1.15501 2.3747,1.50525 0.352,0.17001 1.504,0.81862 2.56,1.44137 1.6591,0.97837 8.0163,4.15287 9.92,4.95354 0.352,0.14803 1.1961,0.51424 1.8757,0.81379 1.7016,0.74989 5.4469,2.05174 7.5643,2.62934 3.0023,0.81898 3.8001,1.03984 5.04,1.39543 2.6169,0.75049 7.90751,1.67312 13.51997,2.35776 5.35549,0.65328 13.87272,0.59411 20.06131,-0.13939 z M 436.3789,168.46197 c -4.05984,-0.49277 -7.03654,-1.35526 -10.77894,-3.12319 -1.43808,-0.67935 -4.63751,-2.60283 -4.74666,-2.85369 -0.0587,-0.13481 -0.24253,-0.2451 -0.40854,-0.2451 -0.68599,0 -7.9648,-7.16655 -7.9648,-7.84194 0,-0.10165 -0.252,-0.46118 -0.56,-0.79897 -0.56029,-0.61448 -1.9377,-3.23075 -3.28467,-6.23909 -2.04349,-4.56385 -2.3682,-6.36277 -2.3682,-13.12 0,-5.54822 0.3545,-8.31652 1.39322,-10.88 1.05642,-2.60705 4.3601,-8.86658 5.21434,-9.87965 3.4576,-4.10043 9.90697,-9.48014 11.36531,-9.4803 0.22,-3e-5 0.40112,-0.10805 0.40249,-0.24005 0.003,-0.28737 1.55258,-1.04 2.14132,-1.04 0.22889,0 0.41619,-0.12721 0.41619,-0.28269 0,-0.15548 0.324,-0.35959 0.72,-0.45357 0.396,-0.094 1.512,-0.40859 2.48,-0.69914 6.20781,-1.863315 12.90435,-1.96009 19.2,-0.27747 0.968,0.25871 2.01004,0.60595 2.31564,0.77163 0.30564,0.16569 0.76,0.30124 1.00976,0.30124 0.41693,0 3.02288,1.22828 3.3946,1.6 0.088,0.088 0.736,0.44663 1.44,0.79694 0.704,0.35032 1.352,0.71364 1.44,0.80739 0.088,0.0937 0.5655,0.42868 1.06112,0.74428 2.52441,1.60752 6.82275,5.90586 8.43027,8.43027 0.31561,0.49562 0.66477,0.97312 0.7759,1.06112 0.82851,0.65603 3.39904,6.48781 4.23149,9.6 1.03846,3.88245 1.18122,4.9756 1.18122,9.04471 0,4.15364 -0.31408,6.35697 -1.44762,10.15529 -0.2889,0.968 -0.60214,2.084 -0.69613,2.48 -0.094,0.396 -0.29808,0.72 -0.45357,0.72 -0.15548,0 -0.28268,0.20838 -0.28268,0.46307 0,0.79714 -2.48644,5.19161 -4.0834,7.21693 -1.26041,1.59847 -6.07427,6.39957 -6.41779,6.40075 -0.12035,3.2e-4 -0.6839,0.39642 -1.25238,0.88 -1.30605,1.11107 -5.17114,3.09294 -8.88643,4.55664 -1.53613,0.60518 -3.64279,1.02589 -7.29168,1.45618 -2.14957,0.25348 -3.98032,0.44459 -4.06832,0.42469 -0.088,-0.0199 -1.71747,-0.22523 -3.62106,-0.45628 z"
     id="path153"
     inkscape:connector-curvature="0" />
</svg>
