<?xml version="1.0" encoding="UTF-8" standalone="no"?>
<!-- Created with Inkscape (http://www.inkscape.org/) -->

<svg
   xmlns:dc="http://purl.org/dc/elements/1.1/"
   xmlns:cc="http://creativecommons.org/ns#"
   xmlns:rdf="http://www.w3.org/1999/02/22-rdf-syntax-ns#"
   xmlns:svg="http://www.w3.org/2000/svg"
   xmlns="http://www.w3.org/2000/svg"
   xmlns:sodipodi="http://sodipodi.sourceforge.net/DTD/sodipodi-0.dtd"
   xmlns:inkscape="http://www.inkscape.org/namespaces/inkscape"
   version="1.1"
   id="svg64"
   width="511.48172"
   height="511.92377"
   viewBox="0 0 511.48172 511.92377"
   sodipodi:docname="watch-icon.svg"
   inkscape:version="0.92.4 (unknown)">
  <metadata
     id="metadata70">
    <rdf:RDF>
      <cc:Work
         rdf:about="">
        <dc:format>image/svg+xml</dc:format>
        <dc:type
           rdf:resource="http://purl.org/dc/dcmitype/StillImage" />
        <dc:title></dc:title>
      </cc:Work>
    </rdf:RDF>
  </metadata>
  <defs
     id="defs68" />
  <sodipodi:namedview
     pagecolor="#ffffff"
     bordercolor="#666666"
     borderopacity="1"
     objecttolerance="10"
     gridtolerance="10"
     guidetolerance="10"
     inkscape:pageopacity="0"
     inkscape:pageshadow="2"
     inkscape:window-width="1920"
     inkscape:window-height="978"
     id="namedview66"
     showgrid="false"
     inkscape:zoom="0.55035557"
     inkscape:cx="1006.2955"
     inkscape:cy="393.0507"
     inkscape:window-x="0"
     inkscape:window-y="27"
     inkscape:window-maximized="1"
     inkscape:current-layer="svg64" />
  <path
     style="fill:#010101"
     d="M 230.99057,510.8065 C 148.05208,502.95463 73.072917,453.85256 31.604137,380.23304 17.012417,354.32836 6.8961571,323.99017 1.8256671,290.92883 c -2.19895003,-14.3379 -2.47469003,-52.67114 -0.48195,-67 C 9.5343571,165.03362 34.405167,114.89676 75.618467,74.198966 116.04692,34.276202 162.57436,11.171391 220.49057,2.2577134 c 16.14616,-2.4849987 53.90197,-2.48074408 70,0.00789 31.91208,4.9333645 61.816,14.7263926 86.26616,28.2507116 4.38748,2.426883 8.26508,4.412514 8.6169,4.412514 0.35182,0 8.05956,-7.436935 17.12831,-16.526522 17.54561,-17.58593421 20.28603,-19.39067125 27.41355,-18.05354085 1.98981,0.3732912 5.15604,2.02926695 7.03606,3.67994605 5.34728,4.6949759 5.73384,8.2912758 5.36371,49.9001168 -0.35972,40.438353 -0.35165,40.386686 -7.0596,45.171162 l -3.26509,2.328839 -39.51276,0.29228 -39.51276,0.29228 -4.38191,-2.317207 c -5.11416,-2.704433 -8.09257,-7.513831 -8.09257,-13.067496 0,-5.476713 1.01661,-6.983829 12.65777,-18.765013 L 363.58791,57.29852 351.78924,51.655852 C 290.70454,22.442341 218.46244,22.890395 156.99057,52.864017 110.84119,75.366408 75.091307,111.1079 52.401187,157.42883 c -39.18133,79.98706 -27.15828,175.25153 30.85763,244.5 29.604843,35.33669 73.311523,62.44137 118.231753,73.32137 20.23766,4.90172 30.94057,6.1134 54,6.1134 23.03981,0 33.77495,-1.21353 53.91965,-6.09523 45.10137,-10.9295 88.63257,-37.91371 118.3121,-73.33954 32.58131,-38.88943 50.963,-85.67587 53.38911,-135.8899 0.77536,-16.04786 2.18693,-19.95107 8.35276,-23.09664 2.17069,-1.1074 5.33256,-2.01346 7.02638,-2.01346 4.96212,0 10.72331,3.53732 12.98654,7.97362 2.35354,4.61332 2.59166,12.21657 0.94037,30.02638 -3.8742,41.78471 -17.98019,82.55491 -40.28295,116.42878 -19.35856,29.40216 -45.48667,55.62466 -74.46291,74.73191 -47.78708,31.51132 -107.07643,46.17046 -164.68105,40.71698 z m 17.0928,-242.253 c -7.75195,-4.69236 -7.50393,-2.70071 -7.54933,-60.62467 -0.0369,-47.08565 0.10951,-51.7983 1.70808,-54.98007 5.37811,-10.70446 21.11879,-10.70446 26.4969,0 1.58201,3.14881 1.74859,7.50178 1.75,45.73007 l 0.002,42.25 42.25,0.002 c 38.22829,0.001 42.58126,0.16799 45.73007,1.75 10.70446,5.37811 10.70446,21.11879 0,26.4969 -3.17875,1.59706 -7.93913,1.74813 -54.98007,1.74487 l -51.5,-0.004 -3.9072,-2.36508 z"
     id="path74"
     inkscape:connector-curvature="0" />
</svg>
